<svg width="100" height="40" viewBox="0 0 100 40" fill="none" xmlns="http://www.w3.org/2000/svg">
<path d="M0 3.67044V4.42431L14.7312 1.91967L29.4583 4.42843V3.67044L14.7312 0.943359L0 3.67044Z" fill="white"/>
<path d="M29.4583 4.42016L14.7312 1.91553L0 4.42016L0.0370752 6.89184C0.0370752 6.89184 7.43975 3.67866 14.7271 3.67866C22.0185 3.67866 29.4171 6.89184 29.4171 6.89184L29.4542 4.42016H29.4583Z" fill="#D02F28"/>
<path d="M14.7312 3.57971C5.52836 3.57971 0.0371094 6.83409 0.0371094 6.83409L0.148335 14.245C0.148335 17.6477 1.26059 32.1194 14.7312 39.9999C28.2101 32.1194 29.3141 17.6518 29.3141 14.245L29.4254 6.83409C29.4254 6.83409 23.9382 3.57971 14.7312 3.57971Z" fill="#1D1D1C"/>
<path d="M28.87 7.36554C28.87 7.36554 24.0832 4.31714 14.732 4.31714C5.38078 4.31714 0.589844 7.36554 0.589844 7.36554L0.738144 14.245C0.738144 16.9392 1.25308 31.3738 14.732 39.209C28.2109 31.3738 28.7258 16.9392 28.7258 14.245L28.8741 7.36554H28.87Z" fill="#FAEB53"/>
<path d="M14.398 5.45825C14.398 5.45825 14.3815 5.61891 14.3444 5.70954C14.3115 5.79605 14.2167 5.85372 14.2208 5.91139C14.2291 5.96907 14.2867 6.03498 14.3815 6.08441C14.4721 6.13384 14.5092 6.17092 14.6039 6.19152C14.6905 6.21211 14.8017 6.27803 14.8346 6.20388C14.8676 6.12972 14.8182 6.0391 14.7646 5.95259C14.674 5.80017 14.6245 5.76721 14.4886 5.55712C14.4598 5.5118 14.435 5.46237 14.3939 5.45825H14.398Z" fill="#1D1D1C"/>
<path d="M13.7048 21.829C13.713 21.8043 13.9314 21.9402 14.0467 22.0061C14.2856 22.1503 14.3927 22.2327 14.6028 22.3934C14.7676 22.5211 14.85 22.587 15.0189 22.7312C15.2249 22.9083 15.3361 23.0607 15.3896 23.0237C15.4679 22.9289 15.2578 22.6447 15.0724 22.4922C14.8912 22.3439 14.7017 22.2204 14.5575 22.1256C14.3721 22.002 14.3557 21.9732 14.0755 21.7878C13.7748 21.586 13.5153 21.3347 13.5153 21.3347L13.2228 21.104L12.7655 20.7168L12.2589 20.2471L11.8757 19.8187C11.8757 19.8187 11.5791 19.4562 11.5297 19.3862C11.4803 19.3161 11.3402 19.0896 11.2249 18.9001C11.1219 18.7312 10.92 18.4634 10.8994 18.4387C10.7923 18.3069 10.5452 18.3604 10.2568 18.1915C9.90664 17.9855 9.82425 17.7961 9.82425 17.7961C9.82425 17.7961 9.81189 17.7672 9.79953 17.7549C9.78717 17.7384 9.75834 17.7219 9.75834 17.7219L9.57708 17.5942L9.4741 17.5242C9.4741 17.5242 9.39582 17.4583 9.29284 17.4171C9.19397 17.3717 8.9674 17.244 8.9674 17.244L8.56781 16.9886C8.56781 16.9886 8.41127 16.8609 8.35772 16.8197C8.30417 16.7785 8.2053 16.7209 8.2053 16.7209C8.2053 16.7209 8.14351 16.6879 8.12291 16.6879C8.10231 16.6879 8.01992 16.6797 8.01992 16.6797C8.01992 16.6797 7.94165 16.6591 7.86338 16.7538C7.78511 16.8445 7.80159 16.795 7.9293 17.3141C7.97873 17.52 7.97461 18.241 8.02816 18.4593C8.09819 18.7435 8.29593 19.106 8.31653 19.1514C8.33712 19.1926 8.34948 19.3532 8.34948 19.3532C8.34948 19.3532 8.34124 19.4809 8.3536 19.5633C8.41539 19.9341 8.95916 19.691 9.07863 20.2018C9.19809 20.7044 9.0086 21.2111 9.0086 21.2111C9.0086 21.2111 8.88913 21.4624 8.72435 21.4994C8.55957 21.5406 8.30417 21.174 8.11879 20.8774C7.93753 20.5849 7.78511 20.2018 7.7398 20.0824C7.69037 19.9629 7.66565 19.9341 7.6121 19.8475C7.52971 19.7157 7.4638 19.7404 7.37317 19.5345C7.28254 19.3285 7.36081 19.2461 7.31962 19.0648C7.2949 18.966 7.2743 18.9536 7.24135 18.8094C7.20839 18.6653 7.17131 18.2121 7.17131 18.2121L7.11364 17.7919C7.11364 17.7919 7.09304 17.5983 7.06833 17.4789C6.9777 17.0587 6.94474 16.6508 6.94474 16.6508L6.92827 16.4819L6.92003 16.3089C6.92003 16.3089 6.91591 16.2265 6.93651 16.14C6.9571 16.0535 6.9983 15.9835 6.9983 15.9835C6.9983 15.9835 7.08069 15.8393 7.09716 15.8063C7.11364 15.7734 7.28666 15.5715 7.28666 15.5715C7.28666 15.5715 7.37729 15.4974 7.52559 15.4068C7.67389 15.3161 7.80983 15.3244 7.80983 15.3244C7.80983 15.3244 7.84691 15.3203 8.11055 15.3532C8.3742 15.3862 8.91797 15.5303 9.05391 15.5674C9.18985 15.6045 9.35051 15.6622 9.45762 15.7198C9.75834 15.8846 9.84897 15.8146 9.61004 15.6251C9.44938 15.4974 9.40406 15.4438 9.27224 15.3244C9.16102 15.2255 9.07451 15.1555 8.99624 15.0648C8.91385 14.9701 8.67904 14.6241 8.67904 14.6241L8.53486 14.4099C8.53486 14.4099 8.45659 14.3233 8.44423 14.3151C8.43187 14.3069 8.39068 14.278 8.39068 14.278C8.39068 14.278 8.29593 14.2821 8.19294 14.2657C8.09407 14.2451 8.04464 14.3851 8.04464 14.3851C8.04464 14.3851 7.82631 14.7888 7.60798 15.0401C7.24958 15.4438 6.99418 15.7157 6.86235 15.9299C6.67698 16.2265 6.71817 16.552 6.62343 16.7044C6.56575 16.7909 6.53692 16.8074 6.50808 16.8815C6.41745 17.1163 6.75113 17.244 6.67698 17.5036C6.55339 17.9114 5.59356 18.3192 5.46586 18.2533C5.33403 18.1833 5.44114 17.6272 5.48645 17.45C5.53177 17.2688 5.66771 17.0051 5.68007 16.9886C5.69243 16.9763 5.72538 16.9145 5.73362 16.8609C5.74598 16.8074 5.74598 16.6879 5.75422 16.622C5.76246 16.5561 5.78717 16.449 5.78717 16.449C5.78717 16.449 5.79129 16.4284 5.8778 16.243C5.96431 16.0576 6.27739 15.6251 6.49984 15.2131C6.64814 14.9454 6.70993 14.7806 6.85824 14.5128C6.99418 14.2657 7.22899 13.8908 7.22899 13.8908C7.22899 13.8908 7.32785 13.6972 7.37317 13.6272C7.41848 13.553 7.51735 13.4171 7.6121 13.2811C7.70684 13.1452 7.72744 13.0422 7.85103 12.931C7.95401 12.8362 8.01992 12.7868 8.15175 12.7456C8.34948 12.6797 8.4813 12.7168 8.67904 12.7703C8.88501 12.828 9.02919 12.9227 9.16514 13.0339C9.30108 13.1452 9.39994 13.2729 9.39994 13.2729L9.46586 13.3676L9.50705 13.3923L9.63475 13.4747L9.92312 13.6642C9.92312 13.6642 10.6069 14.1297 10.644 14.1544C10.6811 14.1792 10.8006 14.278 10.8294 14.2863C10.8541 14.2945 11.0354 14.0968 11.3938 13.8496C11.8057 13.5654 11.954 13.586 12.09 13.5118C12.2259 13.4377 12.2795 13.3759 12.3866 13.2688C12.5472 13.1081 12.5472 13.0216 12.7285 12.7991C12.9097 12.5767 13.0827 12.449 13.0827 12.449C13.0827 12.449 13.1075 12.4243 13.4329 12.0576C13.7583 11.691 13.9025 11.4109 13.9025 11.4109L14.0797 11.0525C14.0797 11.0525 14.3392 10.4964 14.4216 10.278C14.504 10.0556 14.504 9.98555 14.504 9.98555C14.504 9.98555 14.5163 9.92787 14.4545 9.81665C14.3886 9.70542 14.3227 9.75486 14.1991 9.77957C13.9602 9.82901 13.816 9.76721 13.5771 9.72602C13.3588 9.68894 13.2434 9.62303 13.021 9.58596C12.7985 9.54888 12.6667 9.51181 12.4442 9.5324C12.4113 9.5324 12.3412 9.54888 12.3083 9.56124C12.1847 9.60244 12.1476 9.61479 12.0529 9.66835C11.9458 9.71778 11.8716 9.73426 11.7522 9.73838C11.6698 9.73838 11.6203 9.73838 11.5421 9.71366C11.4885 9.69306 11.4597 9.67659 11.4185 9.63951C11.3938 9.61479 11.3814 9.60244 11.3608 9.5736C11.3608 9.54888 11.3526 9.553 11.3732 9.51181C11.3938 9.47473 11.4226 9.46649 11.4226 9.46649L11.5256 9.44178C11.5256 9.44178 11.6698 9.4047 11.6821 9.40058C11.6945 9.40058 11.8304 9.35115 11.8922 9.33467C11.954 9.31407 12.0199 9.28112 12.0199 9.28112C12.0199 9.28112 12.057 9.22344 12.0405 9.19049C12.024 9.15341 11.9417 9.14929 11.9417 9.14929C11.9417 9.14929 11.8263 9.19049 11.814 9.19461C11.8016 9.19461 11.6203 9.2564 11.6203 9.2564C11.6203 9.2564 11.4762 9.28936 11.3649 9.31407C11.2537 9.33879 11.093 9.35115 11.093 9.35115L11.0436 9.33879C11.0436 9.33879 10.9901 9.30171 10.9818 9.26464C10.9736 9.23168 10.9695 9.20285 10.9612 9.16577C10.9365 9.02571 10.9077 8.9392 10.9406 8.79914C10.953 8.74147 10.9695 8.70851 10.9942 8.65496C11.0148 8.60964 11.0313 8.58493 11.056 8.53961L11.1466 8.39543L11.3114 8.14826C11.369 8.09059 11.4061 8.06176 11.4762 8.02056C11.5833 7.95877 11.6451 7.94229 11.7769 7.92993C11.9087 7.91757 11.9252 7.91757 12.1106 7.87638C12.2959 7.83519 12.4278 7.76103 12.4278 7.76103C12.4278 7.76103 12.8685 7.59626 13.1404 7.46443C13.4247 7.32437 13.5482 7.17607 13.8407 7.06485C13.9643 7.01541 14.0343 6.99481 14.162 6.96186C14.1785 6.95362 14.1868 6.94126 14.1909 6.92478C14.2032 6.87535 14.1291 6.85475 14.0838 6.85887C14.0385 6.86299 13.9396 6.90831 13.9149 6.85887C13.8984 6.81768 14.0055 6.79708 14.0055 6.79708C14.0055 6.79708 14.0591 6.77236 14.0591 6.74353C14.0591 6.70233 13.9849 6.72705 13.952 6.72293C13.7789 6.70233 13.7666 6.6735 13.6471 6.64466C13.5071 6.6117 13.4288 6.56639 13.2846 6.56227C13.1569 6.55815 13.0333 6.58287 12.955 6.60347C12.8768 6.62406 12.8727 6.54579 12.9056 6.52932C13.1322 6.42221 13.1363 6.41397 13.2928 6.40985C13.3793 6.40985 13.5029 6.42633 13.5153 6.43045C13.5276 6.43869 13.7007 6.43045 13.746 6.38513C13.7913 6.33982 13.6018 6.34394 13.5153 6.30686C13.4329 6.27391 13.3093 6.26567 13.3134 6.21212C13.3134 6.15856 13.3793 6.1874 13.4205 6.17504C13.4741 6.16268 13.5071 6.16268 13.5606 6.15444C13.6595 6.14209 13.6677 6.13385 13.816 6.11737C13.9643 6.10501 14.1744 6.1668 14.1744 6.1668C14.1744 6.1668 14.3969 6.26567 14.504 6.3151C14.6111 6.36454 14.7429 6.39337 14.7429 6.39337C14.7429 6.39337 14.8953 6.41397 15.0148 6.34394C15.1342 6.26979 15.0683 6.22447 15.023 6.15444C14.9818 6.09265 14.9324 6.00202 15.0065 5.82901C15.0724 5.67659 15.1095 5.50357 15.126 5.48709C15.1507 5.46649 15.2455 5.60244 15.3031 5.66011C15.5173 5.86196 15.8057 5.96083 16.0735 6.38513C16.0941 6.41809 16.1971 6.36454 16.5101 6.41397C16.8232 6.4634 17.0951 6.79708 17.1651 6.87535C17.2352 6.95362 17.3299 6.95362 17.3299 6.95362L17.4782 6.97422L18.0261 6.98246C18.0261 6.98246 18.2733 6.93714 18.4175 6.99069C18.5163 7.02777 18.85 7.25022 18.6976 7.33673C18.5905 7.3944 18.4916 7.2667 18.3969 7.25846C18.2856 7.25022 18.2321 7.27082 18.1332 7.29965C17.9231 7.35321 17.4659 7.48915 17.6306 7.54682C17.643 7.55094 17.6677 7.55506 17.6677 7.55506L17.7501 7.56742C17.7501 7.56742 17.9478 7.61273 18.0714 7.66217C18.2527 7.73632 18.3392 7.81459 18.5081 7.91345C18.6028 7.96701 18.644 8.02468 18.7511 8.05352C18.8459 8.08235 18.9077 8.05352 19.0065 8.06999C19.1342 8.09471 19.2084 8.11943 19.3279 8.1771C19.5009 8.26361 19.5668 8.36248 19.7274 8.47782C19.8057 8.53549 19.8716 8.54373 19.9293 8.622C19.9417 8.63848 19.954 8.64672 19.9623 8.66732C19.9828 8.73735 19.8469 8.69615 19.7728 8.68379C19.6945 8.67144 19.6574 8.63024 19.5874 8.59729C19.4762 8.54785 19.4267 8.49018 19.3073 8.46546C19.2207 8.44899 19.1672 8.46546 19.0807 8.46546C18.9942 8.46546 18.9489 8.48194 18.8624 8.48606C18.7141 8.48606 18.6317 8.4737 18.4875 8.44487C18.3268 8.41191 18.2486 8.346 18.0838 8.31304C17.9025 8.27597 17.5812 8.11943 17.6142 8.27597C17.6306 8.35012 17.7995 8.41191 17.7995 8.41191C17.7995 8.41191 17.9149 8.47782 18.0261 8.52314C18.1373 8.57257 18.1991 8.6426 18.1991 8.6426L18.2774 8.70027C18.2774 8.70027 18.3557 8.80738 18.4586 8.93096C18.5616 9.05043 18.7388 9.05043 18.7388 9.05043C18.7388 9.05043 18.8459 9.05043 19.0807 9.09986C19.3155 9.14929 19.5544 9.29348 19.5544 9.29348C19.5544 9.29348 19.7357 9.41706 19.8428 9.54476C19.9499 9.66835 19.8881 9.73426 19.8757 9.74662C19.8634 9.75898 19.8675 9.75486 19.8551 9.75898C19.8428 9.76721 19.711 9.60244 19.711 9.60244L19.6203 9.52417C19.6203 9.52417 19.5297 9.45825 19.4102 9.42118C19.2908 9.3841 19.2537 9.40882 19.2537 9.40882C19.2537 9.40882 19.0024 9.47885 18.7841 9.47473C18.5658 9.46649 18.4504 9.37998 18.4504 9.37998L18.3145 9.28936C18.3145 9.28936 18.1085 9.09574 18.1003 9.18637C18.0961 9.24816 18.1909 9.31819 18.1909 9.31819C18.1909 9.31819 18.2568 9.3841 18.3021 9.42942C18.3845 9.51181 18.4175 9.553 18.5163 9.63951C18.6111 9.72602 18.6729 9.72602 18.6729 9.72602C18.6729 9.72602 18.7223 9.73838 18.7429 9.7425C18.7635 9.7425 18.7964 9.75486 18.7964 9.75486C18.7964 9.75486 18.8294 9.76721 18.9777 9.82901C19.1301 9.8908 19.2867 10.0226 19.2867 10.0226C19.2867 10.0226 19.3031 10.035 19.3237 10.0391C19.3443 10.0391 19.3896 10.0638 19.402 10.0679C19.4144 10.0679 19.4514 10.0679 19.5379 10.0844C19.6245 10.0968 19.5915 10.1503 19.5915 10.1503L19.575 10.1709L19.505 10.2204C19.505 10.2204 19.4102 10.2451 19.3485 10.2492C19.2825 10.2492 19.196 10.2162 19.196 10.2162L19.0024 10.1421C19.0024 10.1421 18.8088 10.0927 18.7676 10.0844C18.7264 10.0762 18.5493 10.0432 18.5204 10.035C18.4916 10.0267 18.401 9.9979 18.3804 9.98555C18.3598 9.97319 18.3145 9.96495 18.2074 9.9114C18.1003 9.86196 18.0591 9.80017 17.9272 9.75898C17.7954 9.71778 17.7171 9.70954 17.6183 9.77957C17.4494 9.89492 17.8737 9.91551 18.0879 10.0226C18.401 10.175 18.5781 10.2904 18.6523 10.4552C18.7264 10.6199 18.8047 10.6817 18.8047 10.6817C18.8047 10.6817 19.023 10.793 19.1219 10.9083C19.1754 10.9701 19.1837 11.0237 19.2372 11.0854C19.3567 11.2255 19.5915 11.2214 19.6409 11.3408C19.6862 11.4521 19.4514 11.4026 19.3279 11.3903C19.1095 11.3697 19.056 11.1678 18.85 11.0854C18.7347 11.0401 18.6605 11.0401 18.541 10.9989C18.3268 10.9289 18.2238 10.8342 18.0096 10.7682C17.8819 10.727 17.643 10.554 17.6718 10.69C17.6801 10.7229 17.6965 10.7476 17.7089 10.7682C17.7171 10.7888 17.7748 10.8589 17.7748 10.8589C17.7748 10.8589 17.849 10.9536 17.8819 10.9783C17.9149 11.0031 18.0549 11.1102 18.2527 11.2173C18.4504 11.3244 18.6234 11.5345 18.6234 11.5345C18.6234 11.5345 18.6811 11.6169 18.7099 11.6786C18.7388 11.7446 18.7182 11.7652 18.7635 11.8558C18.8088 11.9464 18.8294 11.967 18.8871 12.0206C19.0313 12.1606 19.1837 12.1318 19.369 12.2101C19.4185 12.2307 19.4226 12.2389 19.4762 12.2966C19.5297 12.3542 19.4679 12.379 19.4679 12.379C19.4679 12.379 19.2619 12.4325 19.1301 12.4201C18.9571 12.4078 18.883 12.3542 18.7099 12.2718C18.541 12.1895 18.4504 12.037 18.4339 12.0288C18.4175 12.0206 18.3763 11.9752 18.3433 11.9505C18.3103 11.9299 18.228 11.9093 18.1538 11.8887C18.0797 11.8681 18.0343 11.864 17.9602 11.8434C17.8572 11.8146 17.7542 11.7693 17.7048 11.7528C17.6554 11.7363 17.5482 11.7157 17.4659 11.7652C17.3052 11.8599 17.713 11.9258 17.8407 12.0618C17.9066 12.1318 17.9314 12.1771 17.9931 12.2513C18.0426 12.3048 18.0591 12.346 18.1167 12.3872C18.1579 12.416 18.228 12.449 18.228 12.449C18.228 12.449 18.3268 12.4943 18.471 12.5726C18.6152 12.6508 18.7841 12.8774 18.7841 12.8774L18.8871 13.0339L18.9489 13.1246L18.9653 13.1658L18.9859 13.2152C18.9859 13.2152 19.0601 13.31 19.1136 13.3429C19.1672 13.3759 19.159 13.4047 19.159 13.4047C19.159 13.4047 19.1507 13.4253 19.1136 13.4459C19.0766 13.4665 19.056 13.4459 19.0024 13.4335C18.9489 13.4171 18.9118 13.3676 18.8665 13.3264C18.817 13.2894 18.7676 13.1905 18.677 13.1369C18.5987 13.0916 18.4998 13.0751 18.4586 13.0587C18.4216 13.0463 18.3227 12.9845 18.2856 12.968C18.2486 12.9516 18.1497 12.9062 18.1497 12.9062C18.1497 12.9062 17.9561 12.7991 17.8531 12.7703C17.746 12.7415 17.816 12.8074 17.816 12.8074C17.816 12.8074 17.9108 12.9557 18.0014 13.0134C18.1209 13.0916 18.2856 13.1617 18.2321 13.2234C18.195 13.2646 18.1456 13.2523 18.092 13.244C18.0055 13.2358 17.8984 13.1287 17.8984 13.1287C17.8984 13.1287 17.8531 13.0999 17.6554 13.0339C17.4576 12.968 17.5318 13.0793 17.5771 13.1369C17.6224 13.1946 17.6842 13.2276 17.6842 13.2276L17.8201 13.2894L17.8819 13.31C17.8819 13.31 17.9355 13.3182 18.1167 13.3594C18.2939 13.4006 18.3927 13.4871 18.3927 13.4871C18.3927 13.4871 18.4875 13.5777 18.6234 13.6766C18.7594 13.7755 18.8912 13.8002 18.9653 13.8125C19.0395 13.8208 19.0354 13.8743 19.0354 13.8743C19.0354 13.8743 19.0436 13.9238 19.0436 13.9402C19.0436 13.9567 19.023 13.9691 19.0065 13.9691C18.9901 13.9691 18.9859 13.9773 18.9653 13.9855C18.9447 13.9938 18.8706 14.0061 18.8706 14.0061C18.8706 14.0061 18.6687 13.9979 18.5122 13.9608C18.3557 13.9238 18.2197 13.8125 18.2074 13.8084C18.195 13.8002 18.0467 13.7219 17.9478 13.6889C17.849 13.656 17.6924 13.6683 17.6759 13.6766C17.6595 13.6848 17.6059 13.6931 17.5112 13.7178C17.4164 13.7425 17.5318 13.7796 17.5318 13.7796L17.5977 13.7878L17.7583 13.8002C17.7583 13.8002 17.9231 13.8208 18.0632 13.8702C18.2032 13.9196 18.2939 14.0226 18.3845 14.1174C18.4751 14.208 18.5781 14.2698 18.5781 14.2698L18.6523 14.3192L18.6893 14.3481L18.6976 14.3728C18.6976 14.3728 18.6976 14.3851 18.6893 14.4016C18.6811 14.4181 18.6605 14.4304 18.6605 14.4304C18.6605 14.4304 18.6234 14.4222 18.6111 14.4222C18.5987 14.4222 18.4916 14.3687 18.4133 14.3316C18.3309 14.2945 18.2897 14.2615 18.2074 14.241C18.1332 14.2245 18.0343 14.2162 18.0137 14.2204C17.9931 14.2286 17.8284 14.2492 17.7048 14.2574C17.5812 14.2657 17.47 14.2698 17.3217 14.2492C17.1116 14.2245 16.8315 14.0556 16.7944 14.105C16.7202 14.1998 16.9468 14.2286 17.0539 14.2904C17.2022 14.3769 17.4576 14.4552 17.4576 14.4552C17.4576 14.4552 17.643 14.4964 17.7542 14.5458C17.9931 14.657 18.0673 14.8218 18.2609 14.9948C18.368 15.0937 18.4545 15.1349 18.5946 15.1555C18.7182 15.172 18.7141 15.1555 18.9118 15.1184C19.1054 15.0813 19.2249 14.8959 19.2825 14.9619C19.2949 14.9742 19.2908 14.9866 19.2825 15.0072C19.2825 15.0278 19.2619 15.0607 19.2619 15.0607C19.2619 15.0607 19.2413 15.0937 19.2043 15.1266C19.1672 15.1637 19.0354 15.2337 18.9653 15.2626C18.8953 15.2914 18.7223 15.3408 18.504 15.3326C18.2856 15.3244 17.9849 15.1596 17.9849 15.1596L17.7625 15.0648C17.7625 15.0648 17.6595 15.0154 17.5936 14.9907C17.4123 14.9207 17.297 14.9289 17.1075 14.8795C16.9921 14.8465 16.9138 14.8177 16.8109 14.793C16.7038 14.7724 16.7655 14.8136 16.7738 14.83C16.8232 14.8959 16.8891 14.9165 16.9715 14.9577C17.0827 15.0113 17.161 14.9989 17.2764 15.0484C17.4041 15.1019 17.5112 15.172 17.5812 15.2173C17.6512 15.2626 17.7007 15.312 17.7707 15.382L18.0055 15.5798C18.0055 15.5798 18.0591 15.6251 18.0673 15.6416C18.0755 15.6622 18.1003 15.7075 18.0879 15.7858C18.0755 15.864 18.0096 15.8063 18.0096 15.8063L17.9478 15.7693L17.886 15.7116L17.7872 15.6333C17.7872 15.6333 17.7048 15.5551 17.5606 15.485C17.4164 15.4109 17.2434 15.3903 17.2434 15.3903C17.2434 15.3903 17.091 15.3697 17.0951 15.415C17.1033 15.4644 17.1363 15.4644 17.2599 15.4974C17.3793 15.5303 17.4617 15.588 17.4617 15.588C17.4617 15.588 17.5853 15.6828 17.6759 15.7816C17.7666 15.8846 17.7913 15.9835 17.7913 15.9835C17.7913 15.9835 17.8366 16.0659 17.952 16.1771C18.0673 16.2883 18.1291 16.2513 18.1209 16.3048C18.1126 16.3584 18.0632 16.3707 18.0632 16.3707C18.0632 16.3707 18.0343 16.3707 18.022 16.3707C18.0096 16.3707 17.9808 16.3542 17.9478 16.3419C17.9149 16.3295 17.7954 16.2471 17.7954 16.2471C17.7954 16.2471 17.6059 16.0947 17.5853 16.0782C17.5647 16.0618 17.3835 15.9299 17.3835 15.9299C17.3835 15.9299 17.2764 15.864 17.2022 15.8228C17.1239 15.7858 17.0251 15.7446 16.9674 15.7281C16.9097 15.7075 16.8026 15.7034 16.8026 15.7034C16.8026 15.7034 16.6749 15.6828 16.5966 15.6539C16.4731 15.6086 16.333 15.4768 16.3165 15.4727C16.3 15.4644 16.1847 15.4274 16.1641 15.4315C16.1435 15.4315 16.09 15.6498 16.0776 15.7734C16.024 16.2924 16.1641 16.6385 16.3783 17.1122C16.6873 17.8043 17.5482 18.6653 17.5482 18.6653C17.5482 18.6653 17.7625 18.7888 17.8572 18.8589C18.1126 19.0607 18.541 19.345 18.92 19.724C19.2413 20.0453 19.6739 20.622 19.6739 20.622C19.6739 20.622 19.9211 20.968 20.0364 21.2152C20.1765 21.5159 20.2918 21.9732 20.2918 21.9732C20.2918 21.9732 20.3 22.0515 20.3124 22.0679C20.3206 22.0844 20.3412 22.105 20.3577 22.105H20.506C20.506 22.105 20.6914 22.0968 20.8067 22.0679C20.918 22.0391 21.1857 21.9196 21.3629 21.8249C21.54 21.7343 21.7501 21.553 21.7501 21.553C21.7501 21.553 21.7913 21.52 21.9973 21.2894C22.2032 21.0587 22.3351 20.7168 22.3845 20.5849C22.4339 20.4572 22.4751 20.2059 22.504 19.7816C22.5328 19.3573 22.4751 18.9083 22.4751 18.9083C22.4751 18.9083 22.3969 18.2821 22.3515 18.0679C22.3062 17.8537 22.1909 17.5077 22.1909 17.5077C22.1909 17.5077 22.1126 17.1987 22.0879 17.001C22.0632 16.8033 22.0591 16.4902 22.0591 16.4902C22.0591 16.4902 22.0591 16.2966 22.125 15.9341C22.1909 15.5715 22.4092 15.2131 22.4092 15.2131C22.4092 15.2131 22.471 15.0937 22.7099 14.8094C22.953 14.5211 23.0313 14.4716 23.2702 14.3027C23.4597 14.1668 23.7068 13.9485 23.7851 13.9979C23.8716 14.0556 23.6986 14.1668 23.6409 14.2245C23.4926 14.3728 23.2125 14.6323 22.9859 15.0278C22.7882 15.3697 22.7182 15.5921 22.6687 15.8146C22.6193 16.037 22.6399 16.2801 22.6481 16.3625C22.6564 16.4449 22.7017 16.416 22.7017 16.416C22.7017 16.416 23.1796 16.0329 23.4432 15.7404C23.7233 15.4232 23.9746 14.863 24.0735 14.8589C24.1394 14.8589 24.1723 15.0072 24.1559 15.0731C24.0941 15.3656 24.0735 15.4026 23.9787 15.5921C23.8716 15.8146 23.7686 15.9135 23.6203 16.1153C23.4597 16.3295 23.3855 16.4119 23.2578 16.6962C23.0766 17.104 23.1796 17.4212 23.1796 17.4212C23.1796 17.4212 23.2002 17.6148 23.2867 17.6107C23.4308 17.6066 23.748 17.207 23.954 16.8815C24.1064 16.6426 24.16 16.3625 24.263 16.2183C24.3536 16.0906 24.4319 16.4284 24.3948 16.6261C24.3495 16.8651 24.23 17.0751 23.9746 17.4129C23.7233 17.7425 23.7316 18.0515 23.7316 18.0515C23.7316 18.0515 23.7027 18.1956 23.6821 18.5046C23.6615 18.8136 23.7522 19.2832 23.7522 19.2832C23.7522 19.2832 23.8304 19.6745 23.8469 19.9752C23.8634 20.2718 23.851 20.9557 23.575 21.483C23.4638 21.6972 23.2249 21.9897 23.2249 21.9897C23.2249 21.9897 23.0436 22.1792 22.8912 22.2863C22.7388 22.3975 22.3804 22.5664 22.3804 22.5664C22.3804 22.5664 22.1332 22.6529 22.0961 22.6611C22.0591 22.6694 22.0385 22.7023 22.0385 22.7023C22.0385 22.7023 22.0632 22.7518 22.0714 22.7724C22.0797 22.793 22.1497 22.966 22.1497 22.966C22.1497 22.966 22.2238 23.2131 22.2527 23.4026C22.2815 23.5963 22.2486 23.6416 22.2197 23.7899C22.1909 23.9299 22.1291 23.864 22.1167 24.1441C22.1044 24.3913 22.2156 24.5149 22.195 24.7868C22.1868 24.9062 22.0467 24.6344 21.9849 24.519C21.8448 24.2636 21.8778 23.8805 21.8737 23.7858C21.8737 23.691 21.8613 23.5839 21.8284 23.4603C21.7831 23.3038 21.7213 23.1802 21.6471 23.0854C21.573 22.9907 21.4947 22.9371 21.47 22.9454C21.4453 22.9536 21.4411 23.0031 21.4411 23.0319C21.4411 23.0566 21.4906 23.1472 21.5029 23.1678C21.5153 23.1884 21.61 23.3573 21.61 23.3573C21.61 23.3573 21.6512 23.485 21.6677 23.7404C21.6842 23.9917 21.6059 24.3048 21.6059 24.3048C21.6059 24.3048 21.5071 24.6591 21.3999 24.8651C21.2805 25.0957 21.021 25.4047 21.021 25.4047C21.021 25.4047 20.8315 25.5777 20.6914 25.862C20.5513 26.1462 20.6708 26.2698 20.6214 26.3027C20.5678 26.3398 20.4566 26.1421 20.4236 26.0061C20.3948 25.8826 20.4113 25.8208 20.4607 25.6807C20.5101 25.5448 20.6214 25.3511 20.6214 25.3511L20.7903 25.0628C20.7903 25.0628 20.9921 24.6756 21.058 24.3913C21.1239 24.1071 21.0498 23.7981 21.0498 23.7981C21.0498 23.7981 21.0416 23.6951 20.9715 23.6992C20.9015 23.6992 20.8521 23.7652 20.8232 23.8393C20.7655 23.9958 20.8479 23.967 20.7573 24.2224C20.6873 24.4243 20.6667 24.3996 20.6337 24.519C20.5884 24.6632 20.5637 24.8115 20.5678 24.9021C20.5678 24.9928 20.5225 24.9557 20.5225 24.9557C20.5225 24.9557 20.436 24.795 20.436 24.5973C20.436 24.4902 20.436 24.4284 20.4525 24.3213C20.4731 24.1483 20.5431 23.8805 20.5431 23.8805C20.5431 23.8805 20.6214 23.6169 20.6049 23.3779C20.5884 23.139 20.5019 23.0937 20.5019 23.0937C20.5019 23.0937 20.4813 23.0607 20.3866 23.069C20.2918 23.0772 20.2959 23.242 20.2959 23.242C20.2959 23.242 20.2671 23.4809 20.23 23.6251C20.127 24.0329 19.9911 24.2471 19.748 24.5932C19.5297 24.9021 19.2331 25.1781 19.0848 25.3058C18.9365 25.4335 18.4792 25.7672 18.4792 25.7672L17.9437 26.1215C17.9437 26.1215 17.7336 26.3275 17.6348 26.5746C17.5359 26.8218 17.5441 27.0113 17.5977 27.2379C17.6554 27.4644 17.7377 27.5674 17.7789 27.6292C17.8201 27.691 17.9025 27.8022 17.9314 27.9299C17.9478 28.0123 17.9355 28.0576 17.9396 28.14C17.9396 28.2101 17.952 28.2513 17.952 28.3213C17.952 28.4325 17.9684 28.5149 17.9066 28.6096C17.8572 28.6797 17.7295 28.7415 17.7295 28.7415C17.7295 28.7415 17.5853 28.8074 17.4988 28.8568C16.5884 29.4047 16.2671 29.7631 15.7522 30.3728C15.5874 30.5664 15.7068 30.5582 15.5338 30.7888C15.4308 30.9289 15.1878 30.9248 15.0972 31.0937C14.9736 31.3203 15.3732 31.5427 14.9118 31.7404C14.3186 31.9958 13.297 31.8146 13.2805 31.7322C13.2228 31.5097 13.4782 31.2585 13.5688 31.1596C13.9849 30.7065 14.3557 30.6941 14.4916 30.3192C14.5204 30.241 14.5081 30.1709 14.8418 29.9238C15.0724 29.7507 16.0034 29.0545 16.4072 28.5849C16.5472 28.4243 16.6667 28.3172 16.7244 28.1441C16.7861 27.9711 16.6626 27.8599 16.6626 27.8599L16.4978 27.588L16.1806 27.0154C16.1806 27.0154 16.0488 26.7147 15.9746 26.5376C15.9005 26.3645 15.7604 25.8908 15.7604 25.8908C15.7604 25.8908 15.6574 25.4665 15.6409 25.1946C15.608 24.6962 15.678 24.4119 15.8098 23.9299C15.9787 23.3038 16.3618 23.0442 16.5143 22.4263C16.5596 22.2451 16.5678 21.9402 16.4772 21.9526C16.3907 21.9691 16.3824 22.2121 16.3165 22.3728C16.0694 22.9866 15.7439 23.2543 15.5668 23.8887C15.4473 24.3172 15.3979 24.5726 15.3979 25.0175C15.3979 25.2729 15.3896 25.2276 15.4556 25.6683C15.4803 25.8331 15.5215 25.9196 15.5709 26.0762C15.6039 26.1874 15.6945 26.4016 15.6945 26.4016C15.6945 26.4016 15.8222 26.6817 15.8675 26.8795C15.884 26.9454 15.8963 26.9825 15.8922 27.0525C15.884 27.1678 15.9046 27.1967 15.8469 27.2997C15.7769 27.4315 15.8222 27.5097 15.5956 27.5551C15.3979 27.5963 14.9901 27.4644 14.9901 27.4644C14.9901 27.4644 13.3134 26.9536 12.2424 27.1019C12.0282 27.1308 11.9169 27.209 11.7027 27.2049C11.5091 27.2049 11.4102 27.0525 11.2166 27.106C11.1754 27.1184 11.1631 27.1472 11.1301 27.1678C10.8459 27.3656 11.0642 27.6951 10.3145 27.5221C9.8572 27.415 9.30108 27.139 9.39582 26.9619C9.52353 26.727 9.69655 26.69 10.0591 26.5417C10.4463 26.381 11.0271 26.4263 11.1425 26.4181C11.2825 26.4099 11.4844 26.311 11.7316 26.3069C12.1641 26.2986 12.2424 26.3481 12.2424 26.3481L12.9756 26.414L14.3804 26.4305C14.3804 26.4305 14.6317 26.4099 14.7305 26.3934C14.8294 26.3728 14.9118 26.175 14.9653 26.0803C15.0189 25.9855 14.9653 25.8455 14.9653 25.8455L14.9241 25.7796L14.7923 25.5654L14.5452 25.1493L14.2692 24.6055C14.2692 24.6055 14.092 24.2224 13.9931 23.9711C13.8984 23.724 13.8448 23.5839 13.7789 23.3244C13.713 23.0607 13.6718 22.8424 13.6636 22.6323C13.6512 22.3275 13.6348 22.0885 13.7171 21.8372L13.7048 21.829Z" fill="#1D1D1C"/>
<path d="M22.8296 21.3223C23.1262 20.9433 23.1551 20.589 23.1716 20.0947C23.1839 19.7322 23.048 19.1761 23.048 19.1761L23.0315 19.1349C23.0315 19.1349 22.9779 19.069 22.9491 19.1555C22.9532 19.2337 22.9656 19.2955 22.9656 19.2955L22.9821 20.0123C22.9821 20.0123 22.9573 20.3748 22.8379 20.7456C22.6319 21.3717 22.0799 21.6519 22.0016 21.8784C21.8657 22.2574 22.4836 21.7754 22.8379 21.3182L22.8296 21.3223Z" fill="white"/>
<path d="M19.7292 22.484C19.7292 22.484 19.6097 22.5169 19.6056 22.6364C19.6056 22.7559 19.6345 22.8588 19.6303 23.003C19.6303 23.1843 19.4573 23.3985 19.5685 23.4685C19.7539 23.588 19.9146 22.7517 19.8569 22.6282C19.7992 22.5046 19.7457 22.4799 19.7251 22.4799L19.7292 22.484Z" fill="white"/>
<path d="M17.6445 28.2594C17.6445 28.2594 17.6116 28.2429 17.5415 28.2676C17.4756 28.2924 17.4797 28.3624 17.4797 28.3624C17.4797 28.3624 17.4674 28.4365 17.5209 28.4448C17.5745 28.453 17.6651 28.3212 17.6651 28.3047C17.6651 28.2882 17.6445 28.2594 17.6445 28.2594Z" fill="white"/>
<path d="M15.6791 29.6518C15.6791 29.6518 15.6585 29.6724 15.6791 29.6848C15.6956 29.6971 15.7203 29.6807 15.7203 29.6807C15.7203 29.6807 16.0581 29.417 16.2599 29.2275C16.4741 29.0298 16.779 28.6838 16.779 28.6838C16.779 28.6838 16.7996 28.659 16.779 28.6343C16.7543 28.6137 16.6966 28.6467 16.6513 28.6673C16.6101 28.6879 16.5854 28.7126 16.5524 28.7373C16.5194 28.762 16.4206 28.865 16.4206 28.865L16.1569 29.1204L15.9922 29.2728L15.8315 29.4253L15.7615 29.5035C15.7615 29.5035 15.745 29.5324 15.7409 29.5406C15.7367 29.5488 15.7203 29.5736 15.7203 29.5736C15.7203 29.5736 15.6956 29.5983 15.6956 29.6024C15.6956 29.6065 15.6873 29.6148 15.6873 29.623C15.6873 29.6312 15.6832 29.6395 15.6832 29.6395L15.6791 29.6518Z" fill="white"/>
<path d="M15.0931 30.035C15.0931 30.035 15.056 30.0062 14.9983 30.035C14.9407 30.0639 14.8789 30.1463 14.8748 30.1545C14.8706 30.1627 14.8377 30.208 14.8583 30.2451C14.8789 30.2822 14.953 30.2286 14.9654 30.2245C14.9777 30.2245 15.0725 30.1463 15.0725 30.1463C15.0725 30.1463 15.1302 30.1133 15.0931 30.035Z" fill="white"/>
<path d="M13.9697 31.176C13.9697 31.176 13.9203 31.0854 13.8585 31.1224C13.7967 31.1595 13.7596 31.1719 13.7019 31.2501C13.6937 31.2625 13.6278 31.3449 13.6195 31.3655C13.6072 31.3861 13.5454 31.5055 13.6731 31.5097C13.8914 31.522 13.7472 31.382 13.8214 31.3284C13.8832 31.2872 13.9944 31.2955 13.9944 31.2543C13.9944 31.2089 13.9656 31.1719 13.9656 31.1719L13.9697 31.176Z" fill="white"/>
<path d="M10.125 26.6323C10.125 26.6323 9.99319 26.6653 9.98495 26.7106C9.97671 26.7559 10.0591 26.8012 10.0756 26.8053C10.0879 26.8053 10.1209 26.8424 10.2074 26.7847C10.2939 26.7271 10.2898 26.6776 10.2898 26.6776C10.2898 26.6776 10.3392 26.62 10.125 26.6364V26.6323Z" fill="white"/>
<path d="M12.2433 26.5664C12.2433 26.5664 12.2433 26.517 12.1485 26.5252C12.0538 26.5293 12.0373 26.5458 12.0332 26.5623C12.0332 26.5747 12.0373 26.5994 12.1197 26.6076C12.2021 26.6158 12.2392 26.6076 12.2392 26.5705L12.2433 26.5664Z" fill="white"/>
<path d="M14.2417 26.624C14.0728 26.624 14.1264 26.624 14.0234 26.6322C13.8339 26.6405 13.7309 26.6322 13.5455 26.624C13.286 26.6075 12.8823 26.5416 12.8823 26.5416C12.8823 26.5416 12.8329 26.5334 12.8123 26.5622C12.7917 26.5952 12.8617 26.6652 12.9235 26.6817C13.253 26.7847 13.2695 26.7641 13.4961 26.7682C13.6197 26.7682 13.6897 26.7558 13.8133 26.7476C13.9698 26.7352 14.044 26.7599 14.217 26.7146C14.2623 26.7023 14.3035 26.6199 14.2417 26.6199V26.624Z" fill="white"/>
<path d="M15.3665 26.2904C15.3665 26.2904 15.3335 26.2533 15.2635 26.2862C15.1935 26.3192 15.1523 26.3975 15.1523 26.3975C15.1523 26.3975 15.1193 26.4469 15.1894 26.4387C15.2594 26.4304 15.3171 26.4016 15.3335 26.3892C15.35 26.381 15.3994 26.3315 15.3665 26.2904Z" fill="white"/>
<path d="M14.3849 12.7703C14.3849 12.7703 14.8627 12.3254 15.2005 11.7363C15.4024 11.3862 15.4889 10.5664 15.3159 10.7724C15.2376 10.863 15.1428 11.2914 14.9945 11.6045C14.7803 12.0535 14.3231 12.6838 14.3231 12.6838C14.3231 12.6838 14.2242 12.8939 14.3849 12.7744V12.7703Z" fill="white"/>
<path d="M12.487 13.9031C12.487 13.9031 12.4375 13.9402 12.4581 14.0061C12.4829 14.072 12.5776 14.0226 12.5776 14.0226C12.5776 14.0226 12.7959 13.9402 13.0266 13.9319C13.2573 13.9237 13.5786 13.9896 13.5786 13.9896C13.5786 13.9896 13.7311 14.0308 13.7558 14.0432C13.7805 14.0514 13.8629 14.0926 13.8794 14.0967C13.8917 14.1008 13.97 14.142 14.0153 14.0967C14.0606 14.0555 13.7393 13.763 13.4097 13.7177C12.8619 13.6436 12.5035 13.8784 12.5035 13.8784L12.487 13.899V13.9031Z" fill="white"/>
<path d="M10.228 15.8311C10.2692 15.864 10.4505 15.518 10.6029 15.2955C10.7141 15.1349 10.9201 14.863 10.9201 14.863C10.9201 14.863 11.0107 14.7394 10.8542 14.8094C10.7924 14.8383 10.6153 14.9701 10.4958 15.2132C10.3928 15.4191 10.1868 15.7981 10.228 15.8311Z" fill="white"/>
<path d="M8.96372 14.3192C8.96372 14.3192 8.92252 14.4552 9.08318 14.6241C9.23972 14.793 9.28092 14.933 9.3839 14.8341C9.41274 14.8053 9.28504 14.5787 9.21912 14.5128C9.15321 14.451 9.1079 14.3975 9.1079 14.3975L9.0667 14.3645L9.01315 14.3357L8.98432 14.3233C8.98432 14.3233 8.97608 14.3151 8.96372 14.3233V14.3192Z" fill="white"/>
<path d="M8.44946 13.0216C8.44946 13.0216 8.27644 13.0546 8.23524 13.137C8.19405 13.2193 8.43298 13.1699 8.43298 13.1699C8.43298 13.1699 8.59364 13.1781 8.59364 13.1164C8.59364 13.0546 8.57304 13.0463 8.44534 13.0216H8.44946Z" fill="white"/>
<path d="M5.73037 17.5324C5.64386 17.5077 5.62738 17.6807 5.61914 17.7343C5.60679 17.7878 5.65622 17.9032 5.67682 17.8991C5.69741 17.8991 5.76744 17.7878 5.77156 17.7343C5.77568 17.6807 5.80864 17.553 5.73037 17.5283V17.5324Z" fill="white"/>
<path d="M8.55701 20.8939C8.55701 20.8939 8.40047 20.7703 8.37576 20.8198C8.35104 20.8692 8.50346 21.0875 8.50346 21.0875C8.50346 21.0875 8.54878 21.1576 8.62293 21.1246C8.69296 21.0917 8.66824 21.0134 8.66824 21.0134C8.66824 21.0134 8.61881 20.9104 8.55701 20.8939Z" fill="white"/>
<path d="M7.37467 17.2605C7.37467 17.2605 7.33348 17.2522 7.32112 17.2975C7.30464 17.347 7.30876 17.4253 7.2964 17.52C7.28816 17.5941 7.317 17.7919 7.317 17.7919C7.317 17.7919 7.33348 17.9484 7.36231 18.0432C7.39527 18.1462 7.4859 18.2903 7.4859 18.2903C7.4859 18.2903 7.51885 18.3645 7.56005 18.3604C7.60124 18.3604 7.593 18.3068 7.593 18.3068C7.593 18.3068 7.46118 17.7878 7.45706 17.7342C7.44058 17.5612 7.4447 17.3511 7.4447 17.3511V17.3181C7.4447 17.3181 7.4447 17.2646 7.37467 17.2605Z" fill="white"/>
<path d="M7.58071 15.6745C7.58071 15.6745 7.50656 15.6581 7.44065 15.7981C7.37474 15.9382 7.3871 15.9959 7.39534 16C7.39946 16.0082 7.45301 16.0041 7.53952 15.8764C7.62191 15.7487 7.60543 15.6993 7.60543 15.6993C7.60543 15.6993 7.60131 15.6745 7.58071 15.6745Z" fill="white"/>
<path d="M9.56239 17.1122C9.56239 17.1122 9.6489 17.2399 9.48412 17.2111C9.31522 17.1823 8.96507 16.9063 8.82501 16.8321C8.68494 16.758 8.45013 16.7332 8.549 16.6467C8.56548 16.6302 8.5696 16.6179 8.59843 16.6138C8.62727 16.6138 8.72202 16.6508 8.73026 16.655C8.73438 16.655 8.98155 16.7579 8.9939 16.7621C9.00214 16.7621 9.1422 16.8239 9.24107 16.8815C9.33994 16.9392 9.5006 17.0504 9.5006 17.0504L9.57063 17.1081L9.56239 17.1122Z" fill="white"/>
<path d="M14.1835 21.0875C14.2288 21.2317 13.6562 20.7868 13.3514 20.5479C12.5399 19.9217 11.5471 18.6406 11.6706 18.5294C11.7736 18.4346 12.1815 19.0237 12.7788 19.6663C13.4173 20.3543 14.1588 21.001 14.1835 21.0834V21.0875Z" fill="white"/>
<path d="M16.5687 20.4778C16.3915 20.6673 16.3297 20.9103 16.4327 21.0916C16.5316 21.2687 16.5645 20.8362 16.6758 20.7044C16.7705 20.5931 16.8282 20.6096 16.9888 20.4984C17.2566 20.3089 16.7952 20.2347 16.5728 20.4778H16.5687Z" fill="white"/>
<path d="M15.5566 16.4325C15.4371 16.4119 15.4412 16.5972 15.4577 16.7291C15.5401 17.3181 15.8038 17.7713 16.1539 18.1956C16.3681 18.4551 16.9572 18.9165 17.0231 18.8424C17.0478 18.8176 16.4629 18.3645 16.0921 17.7836C15.8285 17.3717 15.6884 17.0257 15.6555 16.6838C15.6513 16.6426 15.6596 16.4448 15.5566 16.4283V16.4325Z" fill="white"/>
<path d="M13.2813 7.72394C13.0177 7.86812 12.5563 7.99583 12.5563 7.99583C12.5563 7.99583 12.5357 8.04114 12.5934 8.03702C12.9889 8.00407 13.1372 7.95463 13.3472 7.864C13.5573 7.77338 13.7098 7.52209 13.7098 7.52209C13.7098 7.52209 13.7921 7.36555 13.6356 7.49325C13.5862 7.53033 13.4255 7.64567 13.2813 7.72394Z" fill="white"/>
<path d="M16.474 6.71469C16.474 6.71469 16.3834 6.69409 16.3257 6.73117C16.2639 6.76824 16.2845 6.8012 16.2845 6.8012C16.2845 6.8012 16.3793 6.87535 16.4452 6.88359C16.5111 6.89595 16.6553 6.95774 16.6512 6.90831C16.6471 6.85887 16.5647 6.77236 16.5358 6.74765C16.507 6.72293 16.4782 6.71469 16.4782 6.71469H16.474Z" fill="white"/>
<path d="M14.9693 9.47477C14.9858 9.50772 15.2536 9.43357 15.3565 9.3759C15.4389 9.33059 15.4678 9.17817 15.4678 9.17817C15.4678 9.17817 15.4884 9.02986 15.4554 9.08754C15.303 9.33882 14.9528 9.44593 14.9693 9.47477Z" fill="white"/>
<path d="M14.9624 8.7827C15.0695 8.57672 14.6658 8.99691 14.4557 9.10813C14.328 9.17405 14.1261 9.26467 14.1261 9.26467C14.1261 9.26467 14.0726 9.3347 14.1467 9.32646C14.2209 9.32235 14.4145 9.38826 14.571 9.26467C14.6081 9.23584 14.7729 8.99691 14.7729 8.99691C14.7729 8.99691 14.9088 8.88156 14.9624 8.7827Z" fill="white"/>
<path d="M14.9007 9.66831C14.9089 9.70127 15.3662 9.68891 15.4774 9.65596C15.5681 9.63124 15.6134 9.47058 15.6134 9.47058C15.6134 9.47058 15.6669 9.33052 15.6216 9.37995C15.4156 9.59004 14.8883 9.63124 14.8966 9.66831H14.9007Z" fill="white"/>
<path d="M7.58807 13.8413C7.58807 13.8413 7.51804 13.8166 7.43153 13.9443C7.34502 14.072 6.96191 14.6528 7.03194 14.7393C7.11021 14.8423 7.44389 14.2203 7.54687 14.1008C7.64986 13.9855 7.60866 13.866 7.60866 13.866C7.60866 13.866 7.60866 13.8413 7.58807 13.8372V13.8413Z" fill="white"/>
<path d="M15.935 24.3378C15.8938 24.5314 15.9432 24.9269 16.0091 25.0051C16.1739 25.2029 16.075 24.7003 16.0956 24.5232C16.1162 24.3584 16.1368 24.3007 16.2192 24.1277C16.3634 23.8105 16.0256 23.93 15.9391 24.3419L15.935 24.3378Z" fill="white"/>
<path d="M14.5384 7.51386C14.5384 7.51386 14.4107 7.51386 14.3118 7.57153C14.213 7.62508 14.1882 7.70335 14.1882 7.70335C14.1882 7.70335 14.1676 7.75691 14.1841 7.78986C14.213 7.85577 14.3489 7.75691 14.4437 7.78986C14.5219 7.8187 14.559 7.8393 14.6167 7.90933C14.6661 7.97112 14.7608 8.06175 14.8185 8.00819C14.8762 7.95876 14.8556 7.83106 14.8556 7.83106C14.8556 7.83106 14.7897 7.62508 14.6991 7.56741C14.6125 7.50974 14.5425 7.51386 14.5425 7.51386H14.5384Z" fill="white"/>
<path d="M12.4369 8.95981C12.4369 8.95981 12.3669 8.97217 12.3834 9.05456C12.3998 9.14107 12.4452 9.12459 12.4452 9.12459C12.4452 9.12459 12.5893 9.0628 12.5811 8.97217C12.5729 8.88154 12.4369 8.95569 12.4369 8.95569V8.95981Z" fill="white"/>
<path d="M11.4165 8.50253C11.4165 8.50253 11.3382 8.50253 11.2846 8.6014C11.2311 8.69615 11.1981 8.79502 11.1981 8.79502C11.1981 8.79502 11.1734 8.92272 11.2187 8.95979C11.264 8.99687 11.3135 8.87741 11.3753 8.83209C11.4165 8.80326 11.4371 8.7909 11.4783 8.76206C11.5318 8.72499 11.6224 8.7703 11.6142 8.65907C11.606 8.54785 11.4865 8.4943 11.4123 8.50253H11.4165Z" fill="white"/>
<path d="M14.7237 7.30788C14.7237 7.30788 14.5506 7.28317 14.5548 7.34908C14.5589 7.41087 14.6495 7.3738 14.7072 7.39851C14.7607 7.42323 14.7978 7.43147 14.8431 7.47266C14.8761 7.5015 14.872 7.55917 14.9132 7.55917C14.9708 7.55917 14.9585 7.53857 14.9585 7.53857C14.9585 7.53857 14.909 7.39027 14.8431 7.34496C14.7772 7.30377 14.7237 7.30376 14.7237 7.30376V7.30788Z" fill="white"/>
<path d="M16.6718 8.01233C16.6471 8.10707 16.6306 8.14003 16.6306 8.14003C16.6306 8.14003 16.5812 8.33364 16.7748 8.25949C16.9684 8.18946 16.8696 8.2183 17.0096 8.15239C17.1497 8.08236 17.1456 8.11943 17.2486 8.12767C17.2815 8.12767 17.3062 8.12767 17.3557 8.11943C17.401 8.11119 17.3804 8.05764 17.2815 8.03292C17.1785 8.00409 17.0467 8.01233 16.8943 8.01233C16.8078 8.01233 16.6966 7.9217 16.6677 8.01233H16.6718Z" fill="white"/>
<path d="M16.7533 7.29965C16.7533 7.29965 16.6627 7.27905 16.605 7.31613C16.5432 7.3532 16.5638 7.38616 16.5638 7.38616C16.5638 7.38616 16.6586 7.46031 16.7245 7.46855C16.7904 7.48091 16.9346 7.5427 16.9305 7.49327C16.9264 7.44383 16.844 7.35732 16.8151 7.33261C16.7863 7.30789 16.7575 7.29965 16.7575 7.29965H16.7533Z" fill="white"/>
<path d="M17.0996 8.63852C17.0996 8.63852 17.0049 8.61792 16.939 8.655C16.8731 8.69207 16.8937 8.72091 16.8937 8.72091C16.8937 8.72091 16.9925 8.79094 17.0667 8.79918C17.1367 8.80742 17.2933 8.86509 17.285 8.81977C17.2768 8.77446 17.1944 8.68795 17.1656 8.66735C17.1367 8.64264 17.1038 8.63852 17.1038 8.63852H17.0996Z" fill="white"/>
<path d="M17.1294 9.12453C17.1294 9.12453 17.0264 9.10394 16.9605 9.14513C16.8904 9.18633 16.911 9.21928 16.911 9.21928C16.911 9.21928 17.0181 9.29755 17.0923 9.30991C17.1664 9.32227 17.3312 9.38818 17.323 9.33463C17.3147 9.28107 17.2241 9.18633 17.1953 9.15749C17.1623 9.13277 17.1294 9.12453 17.1294 9.12453Z" fill="white"/>
<path d="M17.1752 9.59828C17.1752 9.59828 17.0639 9.57356 16.9898 9.61888C16.9156 9.66419 16.9362 9.70127 16.9362 9.70127C16.9362 9.70127 17.0516 9.7919 17.134 9.80425C17.2163 9.81661 17.3935 9.89488 17.3852 9.83309C17.377 9.77542 17.2781 9.66419 17.2452 9.63536C17.2122 9.60652 17.1752 9.59828 17.1752 9.59828Z" fill="white"/>
<path d="M17.1615 10.1832C17.1615 10.1832 17.0503 10.1585 16.9761 10.2038C16.902 10.2492 16.9225 10.2862 16.9225 10.2862C16.9225 10.2862 17.0379 10.3769 17.1203 10.3892C17.2027 10.4016 17.3798 10.4798 17.3716 10.4181C17.3633 10.3604 17.2645 10.2492 17.2315 10.2203C17.1986 10.1915 17.1615 10.1832 17.1615 10.1832Z" fill="white"/>
<path d="M17.0834 11.3244C17.0834 11.3244 16.9721 11.2996 16.898 11.345C16.8238 11.3903 16.8444 11.4273 16.8444 11.4273C16.8444 11.4273 16.9598 11.518 17.0422 11.5303C17.1245 11.5427 17.3017 11.621 17.2934 11.5592C17.2852 11.5015 17.1863 11.3903 17.1534 11.3614C17.1204 11.3326 17.0834 11.3244 17.0834 11.3244Z" fill="white"/>
<path d="M17.1582 10.7518C17.1582 10.7518 17.0305 10.7229 16.944 10.7765C16.8575 10.83 16.8822 10.8754 16.8822 10.8754C16.8822 10.8754 17.014 10.9783 17.1087 10.9948C17.2035 11.0113 17.4053 11.0978 17.3971 11.0278C17.3889 10.9577 17.2735 10.8342 17.2364 10.7971C17.1994 10.7641 17.1541 10.7518 17.1541 10.7518H17.1582Z" fill="white"/>
<path d="M17.0289 11.8393C17.0289 11.8393 16.9383 11.8187 16.8765 11.8558C16.8147 11.8929 16.8353 11.9258 16.8353 11.9258C16.8353 11.9258 16.9301 12 16.996 12.0082C17.0619 12.0206 17.2102 12.0824 17.202 12.0329C17.1978 11.9835 17.1155 11.8929 17.0866 11.8682C17.0578 11.8434 17.0289 11.8352 17.0289 11.8352V11.8393Z" fill="white"/>
<path d="M16.9435 12.3337C16.9435 12.3337 16.8693 12.3172 16.8158 12.3502C16.7664 12.3831 16.7787 12.4079 16.7787 12.4079C16.7787 12.4079 16.857 12.4697 16.9105 12.4779C16.9682 12.4861 17.0877 12.5397 17.0836 12.4985C17.0794 12.4573 17.0094 12.3831 16.9888 12.3625C16.9641 12.3419 16.9394 12.3378 16.9394 12.3378L16.9435 12.3337Z" fill="white"/>
<path d="M16.8373 12.7826C16.8373 12.7826 16.7714 12.7662 16.722 12.795C16.6767 12.8238 16.689 12.8486 16.689 12.8486C16.689 12.8486 16.7591 12.9021 16.8085 12.9103C16.8579 12.9186 16.9692 12.9639 16.9609 12.9268C16.9568 12.8897 16.895 12.8238 16.8744 12.8032C16.8538 12.7868 16.8291 12.7785 16.8291 12.7785L16.8373 12.7826Z" fill="white"/>
<path d="M16.7299 13.1534C16.7299 13.1534 16.664 13.1369 16.6146 13.1657C16.5693 13.1946 16.5816 13.2193 16.5816 13.2193C16.5816 13.2193 16.6516 13.2728 16.7011 13.2811C16.7505 13.2893 16.8617 13.3346 16.8535 13.2975C16.8494 13.2605 16.7876 13.1946 16.767 13.174C16.7464 13.1575 16.7217 13.1492 16.7217 13.1492L16.7299 13.1534Z" fill="white"/>
<path d="M16.6017 13.5818C16.6017 13.5818 16.5481 13.5695 16.5111 13.5942C16.474 13.6189 16.4864 13.6354 16.4864 13.6354C16.4864 13.6354 16.544 13.6807 16.5852 13.6848C16.6264 13.6931 16.7129 13.7301 16.7088 13.7013C16.7088 13.6725 16.6553 13.6189 16.6388 13.6024C16.6223 13.5859 16.6017 13.5818 16.6017 13.5818Z" fill="white"/>
<path d="M16.4488 13.9855C16.4488 13.9855 16.4035 13.9731 16.3705 13.9937C16.3376 14.0143 16.3499 14.0308 16.3499 14.0308C16.3499 14.0308 16.3994 14.0679 16.4323 14.0761C16.4694 14.0802 16.5435 14.1132 16.5394 14.0885C16.5394 14.0638 16.4941 14.0143 16.4776 14.002C16.4653 13.9896 16.4488 13.9855 16.4488 13.9855Z" fill="white"/>
<path d="M16.2886 14.3645C16.2886 14.3645 16.2433 14.3522 16.2104 14.3728C16.1774 14.3934 16.1898 14.4098 16.1898 14.4098C16.1898 14.4098 16.2392 14.4469 16.2722 14.4551C16.3051 14.4593 16.3834 14.4922 16.3793 14.4675C16.3793 14.4428 16.334 14.3934 16.3175 14.381C16.3051 14.3686 16.2886 14.3645 16.2886 14.3645Z" fill="white"/>
<path d="M5.97304 16.3048C5.97304 16.3048 5.89477 16.4572 5.93184 16.5437C5.97304 16.6302 6.08015 16.4078 6.08015 16.4078C6.08015 16.4078 6.19137 16.1895 6.14606 16.1483C6.10074 16.1071 6.07191 16.2224 5.97304 16.3048Z" fill="white"/>
<path d="M12.0218 29.8825C12.0218 29.8825 11.9641 29.8043 11.9064 29.8619C11.8488 29.9196 11.7787 30.0102 11.6469 29.9979C11.5151 29.9896 11.4615 29.969 11.3874 29.9361C11.3132 29.9031 11.2102 29.8537 11.2102 29.8537C11.2102 29.8537 10.9425 29.7507 10.72 29.7466C10.4934 29.7425 10.1268 29.8331 9.94556 30.0267C9.76842 30.2203 9.72311 30.4181 9.72311 30.4181C9.72311 30.4181 9.66543 30.7682 9.7643 30.933C9.86729 31.0937 9.97851 31.2667 10.2257 31.4191C10.4728 31.5715 10.5841 31.6292 10.5841 31.6292L11.0166 31.8269L11.4162 31.9793C11.4162 31.9793 11.9929 32.1524 12.063 32.589C12.133 33.0257 11.8693 33.5901 11.0743 33.6395C10.2916 33.6889 9.90848 33.3099 9.78902 33.0669C9.66955 32.8238 9.73547 32.6137 9.73547 32.6137L9.76842 32.5478L9.79726 32.5314C9.79726 32.5314 9.92084 32.6137 10.0362 32.5973C10.1557 32.5808 10.374 32.4366 10.3287 32.2059C10.2834 31.9711 10.0733 31.9176 9.97027 31.9299C9.87141 31.9382 9.42239 32.0535 9.41415 32.7085C9.40591 33.3594 9.99911 33.7095 9.99911 33.7095C9.99911 33.7095 10.4193 33.9732 10.8972 33.9484C11.3709 33.9279 11.7664 33.7384 11.7664 33.7384C11.7664 33.7384 12.4708 33.3882 12.4873 32.622C12.5037 31.8558 12.0218 31.588 12.0218 31.588C12.0218 31.588 11.8488 31.4685 11.6881 31.3944C11.5316 31.3202 11.1484 31.139 11.1484 31.139L10.7612 30.9618L10.5264 30.83L10.3946 30.7435C10.3946 30.7435 10.0815 30.4963 10.2463 30.2286C10.4152 29.9608 10.8972 30.0597 10.8972 30.0597C10.8972 30.0597 11.272 30.1379 11.5645 30.348C11.857 30.5581 12.0259 30.8094 12.0259 30.8094L12.1495 31.0071L12.166 31.036L12.2689 30.9989C12.2689 30.9989 12.1083 30.5458 12.0753 30.3604C12.0465 30.1709 12.0135 29.8825 12.0135 29.8825H12.0218Z" fill="#1D1D1C"/>
<path d="M16.6628 32.4613C16.6628 32.4613 16.7658 32.5767 16.9059 32.5767C17.0459 32.5767 17.2478 32.4778 17.2437 32.2265C17.2437 31.9752 16.9841 31.9052 16.9841 31.9052C16.9841 31.9052 16.5969 31.8146 16.4074 32.2059C16.2179 32.5973 16.3209 32.9392 16.3209 32.9392C16.3209 32.9392 16.4074 33.4706 16.9718 33.7837C17.532 34.0968 18.1335 33.8661 18.1335 33.8661C18.1335 33.8661 18.5866 33.7178 18.9738 33.277C19.3652 32.8362 19.5506 32.3172 19.5506 32.3172L19.6865 31.9752H19.8513C19.8513 31.9752 20.0779 32 20.2426 31.8681C20.4033 31.7363 20.5063 31.5592 20.5063 31.5592L20.5269 31.5056L20.4239 31.4562C20.4239 31.4562 20.3044 31.6127 20.1397 31.6251C19.9749 31.6416 19.806 31.6127 19.806 31.6127L19.9625 31.1884C19.9625 31.1884 20.1438 30.8177 20.1973 30.7353C20.2509 30.6488 20.461 30.3769 20.461 30.3769C20.461 30.3769 20.9018 30.3769 21.3219 30.2863C21.7462 30.1997 22.0058 30.0926 22.0058 30.0926L22.5289 29.8743L22.6566 29.8043L22.6154 29.7013C22.6154 29.7013 22.1417 29.8702 21.4455 29.9485C20.7493 30.0267 20.3085 29.9443 20.3085 29.9443L19.5176 29.8208C19.5176 29.8208 19.2787 29.7796 19.0892 29.7796C18.9038 29.7796 18.5248 29.8455 18.5248 29.8455C18.5248 29.8455 18.1458 29.932 17.9769 30.0597C17.808 30.1874 17.4002 30.4881 17.5856 30.9454C17.771 31.4026 18.5289 31.1596 18.636 30.8218L18.6772 30.7106L18.6896 30.6488L18.6237 30.6241L18.5495 30.7147C18.5495 30.7147 18.2653 30.9536 18.047 30.8012C17.8286 30.6488 17.9769 30.4346 17.9975 30.4098C18.0181 30.3851 18.1376 30.2409 18.4218 30.1792C18.7061 30.1132 19.1304 30.2203 19.1304 30.2203L19.5918 30.3069C19.5918 30.3069 19.8472 30.3563 19.8595 30.3563C19.8719 30.3563 19.9543 30.3686 19.9543 30.3686L19.7936 30.5499C19.7936 30.5499 19.5588 30.7765 19.394 31.1019C19.2292 31.4274 19.1551 31.6004 19.1551 31.6004L19.1386 31.6251C19.1386 31.6251 18.9326 31.6498 18.8008 31.7281C18.669 31.8063 18.5825 31.9299 18.5825 31.9299L18.5207 32.0411L18.6031 32.1112C18.6031 32.1112 18.6978 32.0041 18.8132 31.9752C18.9285 31.9464 19.0192 31.9917 19.0192 31.9917C19.0192 31.9917 18.8503 32.4078 18.772 32.5561C18.6937 32.7044 18.5578 32.9804 18.3683 33.1822C18.1788 33.3882 18.0428 33.5654 17.6103 33.623C17.1778 33.6848 16.8729 33.4047 16.7617 33.2688C16.6505 33.1328 16.5804 32.9227 16.5763 32.7703C16.5722 32.6179 16.6505 32.4696 16.6505 32.4696L16.6628 32.4613Z" fill="#1D1D1C"/>
<path d="M0 3.6828V2.80124L14.7312 0L29.4583 2.80124V3.6828L14.7312 0.959835L0 3.6828Z" fill="#008B47"/>
<path d="M51.2921 1.95264L37.459 40H38.0028L51.8359 1.95264H51.2921Z" fill="white"/>
<path d="M87.3179 36.8326C87.3651 36.8116 87.4122 36.7907 87.4594 36.7697C87.5589 36.7252 87.6559 36.678 87.7528 36.6335C87.7842 36.6177 87.8131 36.6046 87.8445 36.5889C87.9572 36.5339 88.0672 36.4789 88.1772 36.4239C88.1929 36.416 88.2113 36.4081 88.227 36.3977C88.3501 36.3348 88.4707 36.2719 88.5912 36.2064C88.5964 36.2038 88.6017 36.2012 88.6069 36.1986C89.3745 35.782 90.1212 35.3052 90.8364 34.7707C90.8417 34.7681 90.8443 34.7655 90.8495 34.7628C90.9622 34.679 91.0722 34.5952 91.1823 34.5087C91.1954 34.4982 91.2085 34.4877 91.219 34.4799C91.3211 34.4013 91.4207 34.3201 91.5202 34.2362C91.5438 34.2179 91.5674 34.1969 91.591 34.176C91.6801 34.1026 91.7691 34.0293 91.8556 33.9533C91.8923 33.9218 91.929 33.8878 91.9683 33.8537C92.0416 33.7882 92.115 33.7254 92.1883 33.6599C92.2486 33.6075 92.3062 33.5524 92.3639 33.4974C92.4136 33.4503 92.466 33.4031 92.5158 33.3559C92.7359 33.1463 92.9507 32.9315 93.1629 32.7088C93.2101 32.659 93.2573 32.6066 93.3044 32.5569C93.3594 32.4992 93.4144 32.439 93.4668 32.3813C93.5323 32.3106 93.5952 32.2372 93.6581 32.1639C93.6922 32.1246 93.7262 32.0879 93.7603 32.0486C93.8363 31.9621 93.907 31.8757 93.9804 31.7866C94.0013 31.7604 94.0223 31.7368 94.0432 31.7133C94.1244 31.6137 94.203 31.5141 94.2843 31.4146C94.2947 31.4015 94.3052 31.3884 94.3183 31.3727C94.4048 31.2626 94.4886 31.1526 94.5698 31.0426C94.5725 31.0373 94.5777 31.0321 94.5803 31.0268C95.1148 30.3116 95.589 29.5675 96.0082 28.8025C96.0108 28.7947 96.016 28.7894 96.0186 28.7816C96.0841 28.661 96.147 28.5405 96.2099 28.42C96.2178 28.4017 96.2282 28.3833 96.2361 28.3676C96.2911 28.2576 96.3461 28.1475 96.4012 28.0375C96.4169 28.0061 96.4326 27.9746 96.4483 27.9406C96.4955 27.8436 96.54 27.7467 96.5846 27.6498C96.6081 27.6 96.6291 27.5528 96.6501 27.503C96.6867 27.4218 96.7208 27.3406 96.7548 27.262C96.7837 27.1939 96.8125 27.1284 96.8387 27.0603C96.8649 26.9974 96.8911 26.9319 96.9173 26.869C96.9513 26.7826 96.9854 26.6961 97.0195 26.6096C97.0378 26.5625 97.0561 26.518 97.0719 26.4708C97.1112 26.366 97.1478 26.2638 97.1845 26.159C97.195 26.1302 97.2055 26.0988 97.216 26.0699C97.2579 25.9494 97.2972 25.8289 97.3365 25.7084C97.3417 25.6927 97.347 25.6796 97.3522 25.6639C97.3941 25.5302 97.436 25.3966 97.4753 25.263C97.4753 25.2604 97.4753 25.2578 97.4779 25.2525C97.7268 24.4115 97.9181 23.547 98.0439 22.6614C98.0439 22.6614 98.0439 22.6562 98.0439 22.6536C98.0648 22.5121 98.0831 22.3732 98.0989 22.2318C98.0989 22.2187 98.1015 22.2056 98.1041 22.1925C98.1198 22.0615 98.1329 21.9305 98.146 21.7995C98.146 21.7733 98.1513 21.7445 98.1539 21.7183C98.1644 21.6004 98.1748 21.4825 98.1827 21.3619C98.1853 21.3174 98.1879 21.2702 98.1906 21.2257C98.1984 21.1235 98.2037 21.0214 98.2089 20.9218C98.2115 20.8484 98.2141 20.7777 98.2168 20.7043C98.2194 20.6284 98.222 20.5498 98.2246 20.4738C98.2272 20.3271 98.2299 20.1804 98.2299 20.0336C98.2299 20.0284 98.2299 20.0232 98.2299 20.0179C98.2299 20.0101 98.2299 20.0022 98.2299 19.9943C98.2299 18.3281 97.9993 16.6644 97.5487 15.0479C97.5251 14.9667 97.5015 14.8855 97.4779 14.8017C97.4753 14.7886 97.4701 14.7781 97.4675 14.765C97.3862 14.4899 97.2972 14.2174 97.2029 13.9449C97.1898 13.9057 97.174 13.8664 97.1609 13.8271C97.1295 13.7406 97.1007 13.6568 97.0692 13.5729C97.043 13.5048 97.0168 13.4393 96.9906 13.3712C96.9697 13.3188 96.9487 13.2638 96.9278 13.2114C96.8963 13.1302 96.8623 13.0489 96.8282 12.9677C96.8151 12.9363 96.802 12.9022 96.7863 12.8708C96.092 11.2255 95.1488 9.65876 93.9568 8.2309C93.9489 8.22042 93.9384 8.20994 93.9306 8.19946C93.8598 8.11562 93.7891 8.03179 93.7157 7.94795C93.7 7.92961 93.6843 7.91127 93.6686 7.89555C93.5376 7.74622 93.404 7.5995 93.2677 7.45278C93.2494 7.43182 93.2284 7.41087 93.2101 7.38991C93.1577 7.33489 93.1053 7.27987 93.0503 7.22485C93.0031 7.17769 92.9586 7.12791 92.9114 7.08076C92.8852 7.05456 92.8616 7.03098 92.8381 7.00478C92.8092 6.97596 92.783 6.94976 92.7542 6.92356C92.7097 6.87902 92.6652 6.83448 92.618 6.78994C92.5787 6.75065 92.5368 6.71135 92.4975 6.67467C92.4241 6.60655 92.3508 6.53843 92.2774 6.47031C92.2643 6.45721 92.2512 6.44673 92.2381 6.43364C91.2059 5.49046 90.0688 4.66257 88.8401 3.97353C88.6462 3.86349 88.4497 3.7587 88.2506 3.65652C88.2453 3.65652 88.2401 3.65128 88.2349 3.64866C88.1458 3.60412 88.0593 3.55958 87.9703 3.51504C87.9441 3.50194 87.9152 3.48884 87.889 3.47312C87.8209 3.43907 87.7528 3.40763 87.6873 3.37619C87.6375 3.35261 87.5877 3.32903 87.538 3.30545C87.4908 3.28449 87.4463 3.26353 87.3991 3.24257C87.3258 3.20851 87.255 3.17707 87.1817 3.14563C87.1581 3.13515 87.1345 3.12468 87.1109 3.1142C87.014 3.07228 86.917 3.03036 86.8201 2.99106C84.9338 2.21556 82.8876 1.74398 80.7471 1.63656C80.7393 1.63656 80.7288 1.63656 80.7183 1.63656C80.6161 1.63132 80.514 1.6287 80.4118 1.62346C80.383 1.62346 80.3568 1.62346 80.3279 1.62084C80.2389 1.62084 80.1472 1.6156 80.0581 1.6156C80.0188 1.6156 79.9821 1.6156 79.9428 1.6156C79.9009 1.6156 79.8616 1.6156 79.8197 1.6156C79.7751 1.6156 79.7332 1.6156 79.6887 1.6156C79.6441 1.6156 79.5996 1.6156 79.5577 1.6156C79.4712 1.6156 79.3874 1.61822 79.3009 1.62084C79.2643 1.62084 79.2302 1.62084 79.1935 1.62346C79.0992 1.62608 79.0049 1.63132 78.9106 1.63394C78.8922 1.63394 78.8739 1.63394 78.8555 1.63656C77.1133 1.72564 75.4339 2.05837 73.8515 2.60069C73.8489 2.60069 73.8436 2.60331 73.841 2.60331C73.7336 2.63999 73.6262 2.67929 73.5188 2.71597C73.4978 2.72383 73.4742 2.73169 73.4533 2.73955C73.3642 2.77361 73.2751 2.80504 73.186 2.8391C73.1415 2.85482 73.0996 2.87316 73.055 2.8915C72.9869 2.9177 72.9214 2.9439 72.8533 2.97272C72.7852 3.00154 72.7171 3.03036 72.649 3.05918C72.607 3.07752 72.5651 3.09324 72.5232 3.11158C72.4263 3.15349 72.3293 3.19803 72.2324 3.23995C72.2193 3.24519 72.2088 3.25043 72.1957 3.25567C70.5111 4.02331 68.9156 5.05556 67.4798 6.35766C67.4746 6.3629 67.4667 6.36814 67.4615 6.37338C67.3803 6.44673 67.2991 6.52271 67.2205 6.59607C67.2048 6.61179 67.189 6.62489 67.1733 6.64061C67.1 6.70873 67.0266 6.77946 66.9559 6.8502C66.9349 6.87116 66.9166 6.8895 66.8956 6.91046C66.8668 6.93928 66.838 6.9681 66.8065 6.99692C66.7672 7.03622 66.7279 7.07552 66.6886 7.11743C66.6651 7.14101 66.6441 7.16197 66.6231 7.18555C66.5524 7.25891 66.4843 7.32965 66.4135 7.40301C66.3978 7.41873 66.3821 7.43706 66.3664 7.45278C66.2904 7.534 66.2144 7.61522 66.1411 7.69906C66.1358 7.7043 66.1306 7.70954 66.1253 7.71478C64.4853 9.53824 63.2723 11.6106 62.4889 13.8035C62.4784 13.8323 62.4679 13.8611 62.4575 13.8899C62.4391 13.9449 62.4182 14.0026 62.3998 14.0576C62.3762 14.1283 62.3527 14.1965 62.3291 14.2672C62.3291 14.2751 62.3238 14.2829 62.3212 14.2882C62.1666 14.765 62.0278 15.247 61.9125 15.7396C61.6217 16.9657 61.4566 18.2128 61.42 19.4651C61.4173 19.5935 61.4147 19.7219 61.4121 19.8503C61.4121 19.8529 61.4121 19.8581 61.4121 19.8607C61.4121 19.9105 61.4121 19.9629 61.4121 20.0127C61.4121 20.0598 61.4121 20.107 61.4121 20.1568C61.4121 20.2118 61.4121 20.2668 61.4121 20.3218C61.4121 20.4109 61.4147 20.5 61.4173 20.5891C61.4173 20.6231 61.42 20.6572 61.42 20.6912C61.4986 22.8763 61.9597 24.967 62.7352 26.8926C62.7352 26.8978 62.7378 26.9005 62.7404 26.9057C62.8662 27.2175 62.9998 27.5214 63.1413 27.8253C63.1622 27.8724 63.1832 27.917 63.2068 27.9641C63.233 28.0165 63.2592 28.0716 63.2854 28.124C63.322 28.1999 63.3613 28.2759 63.398 28.3519C63.4216 28.3964 63.4425 28.441 63.4661 28.4829C63.5107 28.5693 63.5552 28.6532 63.5997 28.737C63.6207 28.7737 63.639 28.8104 63.66 28.8471C63.7124 28.9414 63.7622 29.0331 63.8172 29.1248C63.8329 29.1536 63.8486 29.1824 63.867 29.2112C63.9272 29.316 63.9875 29.4182 64.0504 29.5204C64.0608 29.5387 64.0713 29.5544 64.0818 29.5728C64.0975 29.599 64.1132 29.6252 64.129 29.6514C64.7892 30.7229 65.5568 31.7211 66.4162 32.6328C66.4162 32.6328 66.4266 32.6459 66.4345 32.6512C66.5524 32.7743 66.6703 32.8975 66.7908 33.018C66.7908 33.018 66.796 33.0232 66.7987 33.0258C66.8118 33.0389 66.8222 33.0494 66.8353 33.0599C66.9297 33.1542 67.0266 33.2485 67.1235 33.3428C67.1812 33.3979 67.2414 33.4529 67.3017 33.5079C67.3515 33.5551 67.4012 33.6022 67.4536 33.6468C67.5322 33.7175 67.6082 33.7856 67.6868 33.8537C67.7183 33.8825 67.7523 33.9114 67.7838 33.9402C67.8755 34.0188 67.9672 34.0974 68.0588 34.1734C68.0772 34.1891 68.0981 34.2074 68.1165 34.2231C68.2187 34.307 68.3235 34.3908 68.4283 34.4747C68.4361 34.4825 68.4466 34.4904 68.4571 34.4956C68.5697 34.5847 68.685 34.6711 68.8003 34.7576C69.5181 35.2947 70.2648 35.7715 71.0351 36.1907C71.0377 36.1907 71.0403 36.1933 71.0429 36.1959C71.1661 36.2641 71.2892 36.3269 71.415 36.3924C71.4281 36.4003 71.4438 36.4081 71.4569 36.4134C71.5695 36.471 71.6822 36.526 71.7975 36.5837C71.8263 36.5968 71.8551 36.6099 71.8839 36.6256C71.9835 36.6728 72.083 36.7199 72.1852 36.7671C72.2298 36.788 72.2769 36.809 72.3215 36.8273C72.4053 36.864 72.4891 36.9007 72.5756 36.9374C72.6385 36.9636 72.704 36.9924 72.7668 37.0186C72.835 37.0474 72.9005 37.0736 72.9686 37.0998C73.0498 37.1339 73.1336 37.1653 73.2175 37.1967C73.2673 37.2151 73.317 37.2334 73.3668 37.2544C73.4664 37.2911 73.5685 37.3277 73.6707 37.3644C73.7048 37.3749 73.7362 37.388 73.7703 37.3985C73.8882 37.4378 74.0035 37.4771 74.1213 37.5164C74.1397 37.5216 74.158 37.5295 74.1764 37.5347C74.3074 37.5766 74.4384 37.6159 74.5694 37.6552C74.5746 37.6552 74.5825 37.6578 74.5877 37.6605C75.4261 37.9094 76.2906 38.098 77.1736 38.2264C77.1788 38.2264 77.1814 38.2264 77.1867 38.2264C77.3255 38.2473 77.4644 38.2657 77.6058 38.2814C77.6216 38.2814 77.6347 38.284 77.6504 38.2866C77.7788 38.3024 77.9098 38.3155 78.0381 38.3286C78.0669 38.3312 78.0958 38.3338 78.1246 38.3364C78.2399 38.3469 78.3578 38.3574 78.473 38.3652C78.5202 38.3678 78.5674 38.3705 78.6171 38.3731C78.7167 38.3783 78.8162 38.3862 78.9158 38.3914C78.9918 38.394 79.0678 38.3967 79.1437 38.3993C79.2171 38.4019 79.2905 38.4045 79.3638 38.4071C79.5158 38.4098 79.6677 38.4124 79.8197 38.4124C79.9716 38.4124 80.1236 38.4124 80.2755 38.4071C80.3489 38.4071 80.4249 38.4019 80.4982 38.3993C80.5742 38.3967 80.6502 38.394 80.7235 38.3914C80.8231 38.3862 80.9227 38.3809 81.0222 38.3731C81.0694 38.3705 81.1165 38.3678 81.1663 38.3652C81.2842 38.3574 81.3995 38.3469 81.5174 38.3364C81.5462 38.3338 81.575 38.3312 81.6038 38.3286C81.7348 38.3155 81.8632 38.3024 81.9916 38.2866C82.0073 38.2866 82.0204 38.284 82.0361 38.2814C82.175 38.2657 82.3165 38.2447 82.4553 38.2264C82.4579 38.2264 82.4632 38.2264 82.4658 38.2264C83.3513 38.098 84.2159 37.9094 85.0543 37.6605L85.0674 37.6552C85.201 37.6159 85.332 37.574 85.463 37.5321C85.4787 37.5269 85.497 37.5216 85.5128 37.5164C85.6307 37.4771 85.7512 37.4378 85.8691 37.3959C85.9005 37.3854 85.932 37.3749 85.9634 37.3618C86.0656 37.3251 86.1677 37.2884 86.2699 37.2491C86.3171 37.2308 86.3642 37.2125 86.414 37.1941C86.4979 37.1627 86.5843 37.1286 86.6682 37.0946C86.7336 37.0684 86.7991 37.0422 86.8646 37.0134C86.9301 36.9872 86.9956 36.9583 87.0611 36.9295C87.145 36.8955 87.2262 36.8588 87.3074 36.8221L87.3179 36.8326Z" fill="#BC2D20"/>
<path d="M66.4547 32.6564C66.5726 32.7796 66.6905 32.9027 66.8111 33.0232C66.8111 33.0232 66.8163 33.0284 66.8189 33.0311C66.832 33.0442 66.8425 33.0546 66.8556 33.0651C66.9499 33.1594 67.0468 33.2538 67.1438 33.3481C67.2014 33.4031 67.2617 33.4581 67.3219 33.5131C67.3717 33.5603 67.4215 33.6075 67.4739 33.652C67.5525 33.7227 67.6285 33.7908 67.7071 33.859C67.7385 33.8878 67.7726 33.9166 67.804 33.9454C67.8957 34.024 67.9874 34.1026 68.0791 34.1786C68.0974 34.1943 68.1184 34.2127 68.1367 34.2284C68.2389 34.3122 68.3437 34.396 68.4485 34.4799C68.4564 34.4877 68.4668 34.4956 68.4773 34.5008C68.59 34.5899 68.7053 34.6764 68.8205 34.7628C69.5384 35.2999 70.2851 35.7767 71.0553 36.1959C71.0579 36.1959 71.0606 36.1986 71.0632 36.2012C71.1863 36.2693 71.3095 36.3322 71.4352 36.3977C71.4483 36.4055 71.464 36.4134 71.4771 36.4186C71.5898 36.4763 71.7024 36.5313 71.8177 36.5889C71.8465 36.602 71.8754 36.6151 71.9042 36.6308C72.0037 36.678 72.1033 36.7252 72.2055 36.7723C72.25 36.7933 72.2972 36.8142 72.3417 36.8326C72.4255 36.8693 72.5094 36.9059 72.5958 36.9426C72.6587 36.9688 72.7242 36.9976 72.7871 37.0238C72.8552 37.0526 72.9207 37.0788 72.9888 37.105C73.07 37.1391 73.1539 37.1705 73.2377 37.202C73.2875 37.2203 73.3373 37.2387 73.3871 37.2596C73.4866 37.2963 73.5888 37.333 73.691 37.3697C73.725 37.3801 73.7565 37.3932 73.7905 37.4037C73.9084 37.443 74.0237 37.4823 74.1416 37.5216C74.1599 37.5269 74.1783 37.5347 74.1966 37.54C74.3276 37.5819 74.4586 37.6212 74.5896 37.6605C74.5948 37.6605 74.6027 37.6631 74.6079 37.6657C75.4463 37.9146 76.3109 38.1032 77.1938 38.2316C77.199 38.2316 77.2017 38.2316 77.2069 38.2316C77.3458 38.2526 77.4846 38.2709 77.6261 38.2866C77.6418 38.2866 77.6549 38.2892 77.6706 38.2919C77.799 38.3076 77.93 38.3207 78.0584 38.3338C78.0872 38.3364 78.116 38.339 78.1448 38.3416C78.2601 38.3521 78.378 38.3626 78.4933 38.3705C78.5404 38.3731 78.5876 38.3757 78.6374 38.3783C78.7369 38.3836 78.8365 38.3914 78.9361 38.3967C79.012 38.3993 79.088 38.4019 79.164 38.4045C79.2373 38.4071 79.3107 38.4098 79.3841 38.4124C79.536 38.415 79.688 38.4176 79.8399 38.4176C79.9919 38.4176 80.1438 38.4176 80.2958 38.4124C80.3691 38.4124 80.4451 38.4071 80.5185 38.4045C80.5945 38.4019 80.6704 38.3993 80.7438 38.3967C80.8434 38.3914 80.9429 38.3862 81.0425 38.3783C81.0896 38.3757 81.1368 38.3731 81.1866 38.3705C81.3045 38.3626 81.4197 38.3521 81.5376 38.3416C81.5664 38.339 81.5953 38.3364 81.6241 38.3338C81.7551 38.3207 81.8835 38.3076 82.0118 38.2919C82.0276 38.2919 82.0407 38.2893 82.0564 38.2866C82.1952 38.2709 82.3367 38.25 82.4756 38.2316C82.4782 38.2316 82.4834 38.2316 82.486 38.2316C83.3716 38.1032 84.2361 37.9146 85.0745 37.6657L85.0876 37.6605C85.2212 37.6212 85.3522 37.5793 85.4832 37.5373C85.499 37.5321 85.5173 37.5269 85.533 37.5216C85.6509 37.4823 85.7714 37.443 85.8893 37.4011C85.9208 37.3906 85.9522 37.3801 85.9836 37.367C86.0858 37.3304 86.188 37.2937 86.2902 37.2544C86.3373 37.236 86.3845 37.2177 86.4343 37.1994C86.5181 37.1679 86.6046 37.1339 86.6884 37.0998C86.7539 37.0736 86.8194 37.0474 86.8849 37.0186C86.9504 36.9924 87.0159 36.9636 87.0814 36.9348C87.1652 36.9007 87.2464 36.864 87.3277 36.8273C87.3748 36.8064 87.422 36.7854 87.4691 36.7645C87.5687 36.7199 87.6656 36.6728 87.7626 36.6282C87.794 36.6125 87.8228 36.5994 87.8543 36.5837C87.9669 36.5287 88.077 36.4736 88.187 36.4186C88.2027 36.4108 88.2211 36.4029 88.2368 36.3924C88.3599 36.3295 88.4804 36.2667 88.6009 36.2012C88.6062 36.1986 88.6114 36.1959 88.6167 36.1933C89.3843 35.7767 90.131 35.2999 90.8462 34.7655C90.8515 34.7628 90.8541 34.7602 90.8593 34.7576C90.972 34.6738 91.082 34.5899 91.192 34.5035C91.2051 34.493 91.2182 34.4825 91.2287 34.4746C91.3309 34.396 91.4305 34.3148 91.53 34.231C91.5536 34.2127 91.5772 34.1917 91.6007 34.1707C91.6898 34.0974 91.7789 34.024 91.8654 33.948C91.902 33.9166 91.9387 33.8825 91.978 33.8485C92.0514 33.783 92.1247 33.7201 92.1981 33.6546C92.2583 33.6022 92.316 33.5472 92.3736 33.4922C92.4234 33.445 92.4758 33.3979 92.5256 33.3507C92.7457 33.1411 92.9605 32.9263 93.1727 32.7036C93.2199 32.6538 93.267 32.6014 93.3142 32.5516C93.3692 32.494 93.4242 32.4337 93.4766 32.3761C93.5421 32.3053 93.605 32.232 93.6679 32.1586C93.7019 32.1193 93.736 32.0827 93.77 32.0434C93.846 31.9569 93.9168 31.8704 93.9901 31.7814C94.0111 31.7552 94.032 31.7316 94.053 31.708C94.1342 31.6084 94.2128 31.5089 94.294 31.4093C94.3045 31.3962 94.315 31.3831 94.3281 31.3674C94.4145 31.2574 94.4984 31.1473 94.5796 31.0373C94.5822 31.0321 94.5875 31.0268 94.5901 31.0216C95.1245 30.3063 95.5987 29.5623 96.0179 28.7973C96.0206 28.7894 96.0258 28.7842 96.0284 28.7763C96.0939 28.6558 96.1568 28.5353 96.2197 28.4148C96.2275 28.3964 96.238 28.3781 96.2459 28.3624C96.3009 28.2523 96.3559 28.1423 96.4109 28.0323C96.4266 28.0008 96.4424 27.9694 96.4581 27.9353C96.5052 27.8384 96.5498 27.7414 96.5943 27.6445C96.6179 27.5947 96.6389 27.5476 96.6598 27.4978C96.6965 27.4166 96.7306 27.3354 96.7646 27.2568C96.7934 27.1886 96.8223 27.1231 96.8485 27.055C96.8746 26.9921 96.9008 26.9267 96.927 26.8638C96.9611 26.7773 96.9952 26.6909 97.0292 26.6044C97.0476 26.5572 97.0659 26.5127 97.0816 26.4655C97.1209 26.3607 97.1576 26.2586 97.1943 26.1538C97.2048 26.125 97.2152 26.0935 97.2257 26.0647C97.2676 25.9442 97.3069 25.8237 97.3462 25.7031C97.3515 25.6874 97.3567 25.6743 97.362 25.6586C97.4039 25.525 97.4458 25.3914 97.4851 25.2578C97.4851 25.2551 97.4851 25.2525 97.4877 25.2473C97.7366 24.4063 97.9279 23.5417 98.0536 22.6562C98.0536 22.6562 98.0536 22.6509 98.0536 22.6483C98.0746 22.5068 98.0929 22.368 98.1086 22.2265C98.1086 22.2134 98.1113 22.2003 98.1139 22.1872C98.1296 22.0562 98.1427 21.9252 98.1558 21.7942C98.1558 21.768 98.161 21.7392 98.1637 21.713C98.1741 21.5951 98.1846 21.4772 98.1925 21.3567C98.1951 21.3122 98.1977 21.265 98.2003 21.2205C98.2082 21.1183 98.2134 21.0161 98.2187 20.9166C98.2213 20.8432 98.2239 20.7725 98.2265 20.6991C98.2291 20.6231 98.2318 20.5445 98.2344 20.4685C98.237 20.3218 98.2396 20.1751 98.2396 20.0284C98.2396 20.0232 98.2396 20.0179 98.2396 20.0127C98.2396 20.0048 98.2396 19.997 98.2396 19.9891C98.2396 18.3228 98.0091 16.6592 97.5585 15.0427C97.5349 14.9615 97.5113 14.8803 97.4877 14.7964C97.4851 14.7833 97.4799 14.7728 97.4772 14.7597C97.396 14.4846 97.3069 14.2122 97.2126 13.9397C97.1995 13.9004 97.1838 13.8611 97.1707 13.8218C97.1393 13.7353 97.1104 13.6515 97.079 13.5677C97.0528 13.4996 97.0266 13.4341 97.0004 13.3659C96.9794 13.3135 96.9585 13.2585 96.9375 13.2061C96.9061 13.1249 96.872 13.0437 96.838 12.9625C96.8249 12.931 96.8118 12.897 96.7961 12.8655C96.1018 11.2202 95.1586 9.65351 93.9665 8.22565C93.9587 8.21517 93.9482 8.20469 93.9403 8.19421C93.8696 8.11038 93.7989 8.02654 93.7255 7.9427C93.7098 7.92436 93.6941 7.90602 93.6783 7.8903C93.5473 7.74097 93.4137 7.59425 93.2775 7.44754C93.2592 7.42658 93.2382 7.40562 93.2199 7.38466C93.1675 7.32964 93.1151 7.27462 93.06 7.2196C93.0129 7.17244 92.9683 7.12267 92.9212 7.07551C92.895 7.04931 92.8714 7.02573 92.8478 6.99953C92.819 6.97071 92.7928 6.94451 92.764 6.91831C92.7195 6.87377 92.6749 6.82923 92.6278 6.7847C92.5885 6.7454 92.5465 6.7061 92.5072 6.66942C92.4339 6.6013 92.3605 6.53318 92.2872 6.46507C92.2741 6.45197 92.261 6.44149 92.2479 6.42839C91.2156 5.48521 90.0786 4.65732 88.8498 3.96828C88.656 3.85824 88.4595 3.75345 88.2603 3.65127C88.2551 3.65127 88.2499 3.64603 88.2446 3.64341C88.1556 3.59887 88.0691 3.55433 87.98 3.50979C87.9538 3.49669 87.925 3.4836 87.8988 3.46788C87.8307 3.43382 87.7626 3.40238 87.6971 3.37094C87.6473 3.34736 87.5975 3.32378 87.5477 3.3002C87.5006 3.27924 87.456 3.25828 87.4089 3.23732C87.3355 3.20326 87.2648 3.17182 87.1914 3.14039C87.1678 3.12991 87.1443 3.11943 87.1207 3.10895C87.0237 3.06703 86.9268 3.02511 86.8299 2.98581C84.9435 2.21031 82.8974 1.73873 80.7569 1.63131C80.749 1.63131 80.7386 1.63131 80.7281 1.63131C80.6259 1.62607 80.5237 1.62345 80.4215 1.61821C80.3927 1.61821 80.3665 1.61821 80.3377 1.61559C80.2486 1.61559 80.1569 1.61035 80.0679 1.61035C80.0286 1.61035 79.9919 1.61035 79.9526 1.61035C79.9107 1.61035 79.8714 1.61035 79.8294 1.61035C79.7849 1.61035 79.743 1.61035 79.6984 1.61035C79.6539 1.61035 79.6094 1.61035 79.5675 1.61035C79.481 1.61035 79.3972 1.61297 79.3107 1.61559C79.274 1.61559 79.24 1.61559 79.2033 1.61821C79.109 1.62083 79.0146 1.62607 78.9203 1.62869C78.902 1.62869 78.8837 1.62869 78.8653 1.63131C77.1231 1.72039 75.4437 2.05312 73.8613 2.59544C73.8586 2.59544 73.8534 2.59806 73.8508 2.59806C73.7434 2.63474 73.6359 2.67404 73.5285 2.71072C73.5076 2.71858 73.484 2.72644 73.463 2.7343C73.374 2.76836 73.2849 2.7998 73.1958 2.83385C73.1513 2.84957 73.1093 2.86791 73.0648 2.88625C72.9967 2.91245 72.9312 2.93865 72.8631 2.96747C72.795 2.99629 72.7268 3.02511 72.6587 3.05393C72.6168 3.07227 72.5749 3.08799 72.533 3.10633C72.436 3.14825 72.3391 3.19278 72.2421 3.2347C72.2291 3.23994 72.2186 3.24518 72.2055 3.25042C70.5209 4.01806 68.9253 5.05031 67.4896 6.35241C67.4844 6.35765 67.4765 6.36289 67.4713 6.36813C67.3901 6.44149 67.3088 6.51746 67.2302 6.59082C67.2145 6.60654 67.1988 6.61964 67.1831 6.63536C67.1097 6.70348 67.0364 6.77422 66.9656 6.84495C66.9447 6.86591 66.9263 6.88425 66.9054 6.90521C66.8766 6.93403 66.8477 6.96285 66.8163 6.99167C66.777 7.03097 66.7377 7.07027 66.6984 7.11219C66.6748 7.13577 66.6539 7.15672 66.6329 7.1803C66.5622 7.25366 66.494 7.3244 66.4233 7.39776C66.4076 7.41348 66.3919 7.43182 66.3761 7.44754C66.3002 7.52875 66.2242 7.60997 66.1508 7.69381C66.1456 7.69905 66.1404 7.70429 66.1351 7.70953C64.495 9.53299 63.282 11.6054 62.4987 13.7982C62.4882 13.827 62.4777 13.8559 62.4672 13.8847C62.4489 13.9397 62.4279 13.9973 62.4096 14.0524C62.386 14.1231 62.3624 14.1912 62.3388 14.262C62.3388 14.2698 62.3336 14.2777 62.331 14.2829C62.1764 14.7597 62.0376 15.2418 61.9223 15.7343C61.6315 16.9605 61.4664 18.2076 61.4297 19.4599C61.4271 19.5883 61.4245 19.7166 61.4219 19.845C61.4219 19.8476 61.4219 19.8529 61.4219 19.8555C61.4219 19.9053 61.4219 19.9577 61.4219 20.0074C61.4219 20.0546 61.4219 20.1018 61.4219 20.1515C61.4219 20.2066 61.4219 20.2616 61.4219 20.3166C61.4219 20.4057 61.4245 20.4947 61.4271 20.5838C61.4271 20.6179 61.4297 20.6519 61.4297 20.686C61.5083 22.871 61.9694 24.9617 62.7449 26.8874C62.7449 26.8926 62.7476 26.8952 62.7502 26.9005C62.8759 27.2122 63.0095 27.5161 63.151 27.82C63.172 27.8672 63.1929 27.9117 63.2165 27.9589C63.2427 28.0113 63.2689 28.0663 63.2951 28.1187C63.3318 28.1947 63.3711 28.2707 63.4078 28.3466C63.4314 28.3912 63.4523 28.4357 63.4759 28.4776C63.5204 28.5641 63.565 28.6479 63.6095 28.7318C63.6305 28.7685 63.6488 28.8051 63.6698 28.8418C63.7222 28.9361 63.7719 29.0278 63.827 29.1195C63.8427 29.1483 63.8584 29.1772 63.8767 29.206C63.937 29.3108 63.9973 29.413 64.0601 29.5151C64.0706 29.5335 64.0811 29.5492 64.0916 29.5675C64.1073 29.5937 64.123 29.6199 64.1387 29.6461C64.799 30.7177 65.5666 31.7159 66.4259 32.6276C66.4259 32.6276 66.4364 32.6407 66.4443 32.6459L66.4547 32.6564Z" fill="white"/>
<path d="M99.829 19.9838C99.8264 18.197 99.5854 16.4155 99.1112 14.6994C99.1059 14.6706 99.0981 14.6444 99.0902 14.6156C99.0693 14.5422 99.0483 14.4689 99.0273 14.3955L99.0011 14.3091C98.9094 14.0052 98.8151 13.7039 98.7129 13.4183L98.6684 13.2925C98.6344 13.1982 98.6003 13.1039 98.5662 13.0122C98.54 12.9415 98.5112 12.8707 98.4824 12.7948C98.4588 12.7345 98.4352 12.6769 98.4117 12.6166C98.3776 12.5301 98.3409 12.4411 98.3042 12.352L98.2597 12.2472C97.4921 10.4237 96.4572 8.72602 95.1839 7.20384L95.1525 7.16716C95.0765 7.07809 95.0005 6.98639 94.9193 6.89469L94.8695 6.83967C94.7228 6.672 94.5761 6.51218 94.432 6.35761L94.3691 6.28949C94.322 6.23709 94.2722 6.18731 94.2224 6.13754L94.1962 6.11134C94.1464 6.05894 94.0966 6.00916 94.0469 5.95676L93.8713 5.78385C93.8242 5.73669 93.7744 5.68953 93.7246 5.63975L93.591 5.51137C93.515 5.43802 93.4338 5.36466 93.35 5.28606L93.2923 5.23104C92.1893 4.22499 90.9763 3.3447 89.6873 2.61374C89.6664 2.60064 89.6454 2.58754 89.6244 2.57706C89.4201 2.46179 89.2105 2.34913 88.9852 2.23385L88.9642 2.22337C88.8725 2.17621 88.7782 2.12906 88.6813 2.0819L88.5922 2.03736C88.5267 2.00592 88.4612 1.97448 88.3957 1.94304L88.0577 1.78585C87.9791 1.75179 87.9005 1.71511 87.8219 1.68105L87.7433 1.64699C87.6438 1.60245 87.539 1.56053 87.4263 1.51337C85.333 0.651421 83.1139 0.156255 80.8372 0.0435988H80.8084C80.6957 0.0357391 80.5857 0.0331191 80.4731 0.0278793H80.384C80.2844 0.0226395 80.1875 0.0200195 80.0879 0.0200195H79.8312H79.5456C79.4539 0.0200195 79.3596 0.0226395 79.2679 0.0252594H79.15C79.0478 0.0331191 78.9456 0.0357391 78.8408 0.0409789H78.7806C76.9231 0.140536 75.0917 0.494225 73.3312 1.09681C73.2133 1.13611 73.098 1.17802 72.9801 1.21994L72.912 1.24614C72.8124 1.28282 72.7155 1.3195 72.6212 1.35618L72.4744 1.41382C72.4037 1.44264 72.333 1.46884 72.2622 1.49766C72.1915 1.52647 72.1207 1.55529 72.0395 1.58935L71.9033 1.64699C71.7985 1.69153 71.6937 1.73869 71.5784 1.79109L71.547 1.80419C69.6764 2.65566 67.9525 3.78747 66.4224 5.17602L66.4041 5.19174C66.315 5.27296 66.2259 5.35418 66.1316 5.44326L66.0897 5.48256C66.0111 5.55591 65.9325 5.63189 65.8539 5.71049L65.6941 5.86768C65.6626 5.89912 65.6338 5.92794 65.605 5.95676L65.4923 6.07204C65.4164 6.15064 65.3404 6.22923 65.2644 6.30783L65.212 6.36285C65.1308 6.44931 65.0496 6.53838 64.9684 6.62746L64.9553 6.64318C63.2078 8.58716 61.8769 10.8141 61.0018 13.2611L60.8918 13.5781C60.8708 13.641 60.8498 13.7012 60.8289 13.7667L60.821 13.7929C60.6507 14.3143 60.5014 14.8435 60.3783 15.3675C60.373 15.3859 60.3704 15.4068 60.3652 15.4225C60.0613 16.722 59.8857 18.0582 59.8438 19.3917V19.4153C59.8386 19.5515 59.8359 19.6878 59.8359 19.8266H59.9669L59.8359 19.8476V20.01C59.8359 20.0467 59.8359 20.0834 59.8359 20.1174V20.3454C59.8412 20.4397 59.8412 20.5366 59.8464 20.6336L59.8517 20.741C59.9355 23.0701 60.4176 25.3363 61.2874 27.4951C61.421 27.8279 61.5677 28.1658 61.7223 28.4933L61.793 28.6427C61.814 28.6846 61.8349 28.7265 61.8585 28.7763L61.8795 28.8182C61.9188 28.8994 61.9607 28.9806 62.0026 29.0645L62.076 29.2086C62.1231 29.3003 62.1729 29.392 62.2227 29.4863L62.2856 29.6042C62.3432 29.7063 62.3982 29.8085 62.4559 29.9107L62.5083 30.0024C62.5738 30.1151 62.6393 30.2277 62.7074 30.3377L62.7938 30.4818C62.8069 30.5028 62.8226 30.5264 62.8331 30.5421C63.53 31.666 64.3448 32.7245 65.2487 33.6886C65.2592 33.7017 65.2723 33.7122 65.2828 33.7253L65.3011 33.7436C65.4399 33.8904 65.5631 34.0161 65.6888 34.1419L65.7308 34.1838C65.8356 34.2886 65.9404 34.3908 66.0452 34.4903C66.0923 34.5375 66.1421 34.5794 66.1892 34.6239L66.2836 34.713C66.3229 34.7497 66.3622 34.7864 66.4015 34.8204C66.4827 34.8938 66.5665 34.9671 66.6504 35.0405L66.763 35.1401C66.8626 35.2239 66.9621 35.3104 67.0617 35.3916L67.1272 35.4466C67.2398 35.5383 67.3525 35.63 67.4651 35.7191L67.4992 35.7453C67.6119 35.8343 67.735 35.9287 67.8686 36.0282C68.6389 36.6046 69.4589 37.1312 70.3104 37.5923C70.4492 37.6657 70.5802 37.7364 70.7139 37.8045L70.7584 37.8281C70.8841 37.891 71.0073 37.9539 71.1304 38.0141L71.2221 38.0587C71.3322 38.1111 71.4396 38.1608 71.5496 38.2106L71.6963 38.2761C71.788 38.318 71.8797 38.3573 71.974 38.3966C72.0369 38.4228 72.1024 38.4516 72.181 38.4831C72.2544 38.5145 72.3277 38.5433 72.4011 38.5722C72.4902 38.6088 72.5792 38.6429 72.6762 38.6796L72.8307 38.7372C72.9382 38.7791 73.0482 38.8184 73.1582 38.8577L73.2683 38.897C73.394 38.9416 73.5198 38.9835 73.6482 39.0254L73.7084 39.0464C73.8499 39.0909 73.9914 39.1354 74.1355 39.1774L74.159 39.1852C75.0734 39.4551 76.0166 39.662 76.9624 39.7983H76.9807C77.13 39.8219 77.282 39.8428 77.4339 39.8612L77.4811 39.8664C77.6226 39.8821 77.7614 39.8978 77.9055 39.9109L77.9999 39.9188C78.1256 39.9293 78.254 39.9424 78.3797 39.9502L78.5605 39.9607C78.6601 39.966 78.7596 39.9738 78.8592 39.9791C78.9116 39.9817 78.9666 39.9843 79.019 39.9843L79.171 39.9895C79.2286 39.9895 79.2862 39.9948 79.3439 39.9948C79.5063 40 79.674 40 79.839 40C80.0041 40 80.1691 40 80.3342 39.9948C80.3918 39.9948 80.4495 39.9922 80.5097 39.9895L80.6381 39.9843C80.701 39.9843 80.7612 39.9791 80.8241 39.9764C80.9211 39.9712 81.0206 39.966 81.1228 39.9581L81.3036 39.9476C81.4293 39.9371 81.5577 39.9267 81.6835 39.9162L81.7778 39.9083C81.9193 39.8952 82.0581 39.8795 82.2101 39.8612L82.2494 39.8559C82.3987 39.8376 82.5507 39.8166 82.7183 39.793C83.6667 39.6568 84.6099 39.4498 85.5452 39.1721C85.6893 39.1302 85.8334 39.0857 85.9775 39.0385L86.0299 39.0202C86.1609 38.9782 86.2893 38.9337 86.4177 38.8892L86.5172 38.8525C86.6299 38.8132 86.7425 38.7713 86.8526 38.732L87.0071 38.6743C87.1015 38.6377 87.1932 38.6036 87.2849 38.5669C87.3556 38.5381 87.4263 38.5093 87.4971 38.4805C87.5704 38.4516 87.6412 38.4202 87.7119 38.3914C87.801 38.3547 87.8901 38.3128 87.9922 38.2683L88.1337 38.2054C88.2385 38.1582 88.3459 38.1084 88.4638 38.0508L88.5529 38.0089C88.6734 37.9512 88.7939 37.891 88.9144 37.8307L88.9695 37.8019C89.1005 37.7338 89.2341 37.6657 89.3651 37.5949L89.386 37.5845C90.2244 37.1286 91.0366 36.6072 91.8173 36.0256C91.9431 35.9313 92.061 35.8422 92.1789 35.7479L92.2182 35.7164C92.3282 35.63 92.4382 35.5409 92.5457 35.4518L92.6216 35.389C92.7186 35.3077 92.8155 35.2265 92.9098 35.1453L93.0565 35.0143C93.1273 34.9514 93.198 34.8886 93.2688 34.8257C93.3133 34.7864 93.3552 34.7471 93.3997 34.7052L93.5255 34.5873C93.5596 34.5558 93.5936 34.5244 93.6251 34.4929C93.8635 34.265 94.0993 34.0292 94.3272 33.7908C94.3613 33.7567 94.3927 33.7201 94.4372 33.6729L94.5211 33.5812C94.5682 33.5314 94.6128 33.4817 94.6573 33.4319C94.7202 33.3638 94.7804 33.2956 94.8407 33.2249L94.9769 33.0703C95.0582 32.9786 95.1368 32.8817 95.2154 32.79L95.2835 32.7088C95.3726 32.6014 95.459 32.4939 95.5533 32.3734L95.5821 32.3367C95.6738 32.2215 95.7629 32.101 95.8546 31.9804L95.8703 31.9595C96.4415 31.1971 96.9602 30.3849 97.4161 29.5465L97.4239 29.5308C97.4973 29.3972 97.5654 29.2662 97.6335 29.1326L97.6624 29.0776C97.7252 28.957 97.7829 28.8365 97.8405 28.716L97.8903 28.6112C97.9401 28.5064 97.9899 28.4016 98.037 28.2968C98.0606 28.2471 98.0842 28.1947 98.1077 28.1396C98.147 28.0479 98.1863 27.9615 98.2256 27.8724C98.2571 27.8017 98.2859 27.7283 98.3173 27.6549C98.3462 27.5842 98.375 27.5161 98.4038 27.4454C98.4405 27.3537 98.4772 27.2593 98.5138 27.165L98.5715 27.0131C98.6134 26.903 98.6527 26.7878 98.6946 26.6751L98.7287 26.5782C98.7732 26.4498 98.8177 26.3188 98.8597 26.1878L98.8754 26.1354C98.9199 25.9965 98.9645 25.8524 99.009 25.7031V25.6926C99.2841 24.773 99.4911 23.8246 99.6299 22.8684C99.6509 22.7164 99.6718 22.5618 99.6902 22.4099L99.6954 22.3679C99.7111 22.2265 99.7269 22.0824 99.7426 21.9409L99.7504 21.8571C99.7635 21.7261 99.774 21.5977 99.7819 21.4693L99.7924 21.2964C99.8002 21.1942 99.8055 21.092 99.8107 20.9899C99.8133 20.9322 99.8159 20.8746 99.8186 20.817L99.8238 20.6912C99.8238 20.6283 99.829 20.5654 99.829 20.5026C99.8317 20.3506 99.8343 20.1934 99.8343 20.0415V20.0074V19.9786L99.829 19.9838ZM64.1509 29.6539C64.1352 29.6277 64.1195 29.6015 64.1038 29.5754C64.0933 29.557 64.0828 29.5413 64.0724 29.523C64.0095 29.4208 63.9492 29.316 63.889 29.2138C63.8732 29.185 63.8549 29.1562 63.8392 29.1273C63.7868 29.0356 63.7344 28.9413 63.682 28.8496C63.661 28.813 63.6427 28.7763 63.6217 28.7396C63.5772 28.6558 63.53 28.5693 63.4881 28.4855C63.4645 28.4409 63.4409 28.3964 63.42 28.3545C63.3807 28.2785 63.344 28.2025 63.3073 28.1265C63.2811 28.0741 63.2549 28.0191 63.2287 27.9667C63.2078 27.9196 63.1868 27.875 63.1632 27.8279C63.0218 27.5266 62.8881 27.22 62.7624 26.9083C62.7624 26.903 62.7598 26.9004 62.7571 26.8952C61.979 24.9669 61.5205 22.8788 61.4419 20.6938C61.4419 20.6598 61.4393 20.6257 61.4393 20.5916C61.4367 20.5026 61.4341 20.4135 61.4341 20.3244C61.4341 20.2694 61.4341 20.2144 61.4341 20.1594C61.4341 20.1122 61.4341 20.065 61.4341 20.0153C61.4341 19.9655 61.4341 19.9131 61.4341 19.8633C61.4341 19.8607 61.4341 19.8554 61.4341 19.8528C61.4341 19.7244 61.4367 19.5961 61.4419 19.4677C61.4786 18.2154 61.6437 16.9657 61.9345 15.7422C62.0524 15.2496 62.1886 14.7649 62.3432 14.2907C62.3432 14.2829 62.3484 14.275 62.3511 14.2698C62.3746 14.199 62.3982 14.1309 62.4218 14.0602C62.4401 14.0052 62.4585 13.9475 62.4794 13.8925C62.4899 13.8637 62.5004 13.8349 62.5109 13.806C63.2942 11.6132 64.5073 9.54081 66.1473 7.71735C66.1526 7.71211 66.1578 7.70687 66.163 7.70163C66.2364 7.62041 66.3124 7.53657 66.3884 7.45536C66.4041 7.43964 66.4198 7.4213 66.4355 7.40558C66.5036 7.33222 66.5744 7.25886 66.6451 7.18812C66.6661 7.16454 66.6897 7.14359 66.7106 7.12001C66.7499 7.08071 66.7892 7.03879 66.8285 6.99949C66.8573 6.97067 66.8861 6.94185 66.9176 6.91303C66.9385 6.89207 66.9569 6.87373 66.9778 6.85277C67.0512 6.78204 67.1219 6.7113 67.1953 6.64318C67.211 6.62746 67.2267 6.61436 67.2425 6.59864C67.3237 6.52266 67.4023 6.44931 67.4835 6.37595C67.4887 6.37071 67.4966 6.36547 67.5018 6.36023C68.9402 5.05813 70.5331 4.02326 72.2177 3.25824C72.2308 3.253 72.2413 3.24776 72.2544 3.24252C72.3513 3.19798 72.4482 3.15607 72.5452 3.11415C72.5871 3.09581 72.629 3.08009 72.6709 3.06175C72.7391 3.03293 72.8072 3.00411 72.8753 2.97529C72.9434 2.94909 73.0089 2.92027 73.077 2.89407C73.1216 2.87573 73.1635 2.86001 73.208 2.84167C73.2971 2.80762 73.3862 2.77356 73.4752 2.74212C73.4962 2.73426 73.5198 2.7264 73.5407 2.71854C73.6482 2.67924 73.7556 2.64256 73.863 2.60588C73.8656 2.60588 73.8709 2.60326 73.8735 2.60326C75.4559 2.06094 77.1353 1.72821 78.8775 1.63913C78.8959 1.63913 78.9142 1.63913 78.9325 1.63651C79.0269 1.63127 79.1212 1.62865 79.2155 1.62603C79.2522 1.62603 79.2862 1.62603 79.3229 1.62341C79.4094 1.62341 79.4932 1.61817 79.5797 1.61817C79.6242 1.61817 79.6687 1.61817 79.7107 1.61817C79.7552 1.61817 79.7971 1.61817 79.8417 1.61817C79.8836 1.61817 79.9229 1.61817 79.9648 1.61817C80.0041 1.61817 80.0408 1.61817 80.0801 1.61817C80.1718 1.61817 80.2608 1.62079 80.3499 1.62341C80.3787 1.62341 80.4049 1.62341 80.4338 1.62603C80.5359 1.62865 80.6381 1.63389 80.7403 1.63913C80.7481 1.63913 80.7586 1.63913 80.7691 1.63913C82.9096 1.74393 84.9531 2.21551 86.8421 2.99363C86.939 3.03293 87.036 3.07485 87.1329 3.11677C87.1565 3.12725 87.1801 3.13773 87.2036 3.14821C87.277 3.17964 87.3504 3.2137 87.4211 3.24514C87.4682 3.2661 87.5128 3.28706 87.5599 3.30802C87.6097 3.3316 87.6595 3.35518 87.7093 3.37876C87.7774 3.4102 87.8455 3.44164 87.911 3.4757C87.9398 3.4888 87.966 3.50189 87.9922 3.51761C88.0813 3.56215 88.1704 3.60669 88.2568 3.65123C88.2621 3.65123 88.2673 3.65647 88.2726 3.65909C88.4691 3.76127 88.6656 3.86606 88.862 3.9761C90.0882 4.66776 91.2278 5.49566 92.2601 6.43883C92.2601 6.43883 92.2863 6.46241 92.2994 6.47551C92.3727 6.54362 92.4461 6.61174 92.5195 6.67986C92.5614 6.71916 92.6007 6.75846 92.64 6.79514C92.6845 6.83967 92.7317 6.88421 92.7762 6.92875C92.805 6.95495 92.8312 6.98377 92.86 7.00997C92.8862 7.03617 92.9098 7.05975 92.9334 7.08595C92.9806 7.13311 93.0277 7.18026 93.0723 7.23004C93.1247 7.28506 93.1797 7.34008 93.2321 7.3951C93.2504 7.41606 93.2714 7.43702 93.2897 7.45798C93.4259 7.60469 93.5596 7.75141 93.6906 7.90074C93.7063 7.91908 93.722 7.93742 93.7377 7.95314C93.8111 8.03698 93.8818 8.12082 93.9526 8.20465C93.9604 8.21513 93.9709 8.22561 93.9788 8.23609C95.1708 9.66395 96.114 11.2307 96.8083 12.876C96.8214 12.9074 96.8345 12.9415 96.8502 12.9729C96.8842 13.0541 96.9157 13.1353 96.9497 13.2166C96.9707 13.269 96.9917 13.324 97.0126 13.3764C97.0388 13.4445 97.065 13.51 97.0912 13.5781C97.1227 13.6619 97.1541 13.7484 97.1829 13.8322C97.196 13.8715 97.2117 13.9108 97.2248 13.9501C97.3192 14.22 97.4082 14.4925 97.4894 14.7702C97.4921 14.7833 97.4973 14.7938 97.4999 14.8069C97.5235 14.8881 97.5497 14.9693 97.5707 15.0531C98.0213 16.667 98.2492 18.3333 98.2518 19.9969C98.2518 20.0048 98.2518 20.0126 98.2518 20.0205C98.2518 20.0257 98.2518 20.031 98.2518 20.0362C98.2518 20.1829 98.2518 20.3296 98.2466 20.4764C98.2466 20.5523 98.2414 20.6309 98.2387 20.7069C98.2361 20.7803 98.2335 20.851 98.2309 20.9244C98.2256 21.0265 98.2204 21.1287 98.2125 21.2283C98.2099 21.2728 98.2073 21.32 98.2047 21.3645C98.1968 21.4824 98.1863 21.6003 98.1759 21.7208C98.1759 21.747 98.1706 21.7758 98.168 21.802C98.1549 21.933 98.1418 22.064 98.1261 22.195C98.1261 22.2081 98.1235 22.2212 98.1208 22.2343C98.1051 22.3758 98.0842 22.5173 98.0658 22.6561C98.0658 22.6561 98.0658 22.6614 98.0658 22.664C97.9375 23.5495 97.7488 24.4141 97.4999 25.2551C97.4999 25.2577 97.4999 25.2603 97.4973 25.2656C97.458 25.3992 97.4161 25.5328 97.3742 25.6664C97.3689 25.6821 97.3637 25.6952 97.3585 25.711C97.3192 25.8315 97.2799 25.952 97.2379 26.0725C97.2275 26.1013 97.217 26.1328 97.2065 26.1616C97.1698 26.2664 97.1305 26.3712 97.0938 26.4734C97.0755 26.5205 97.0598 26.5651 97.0414 26.6122C97.0074 26.6987 96.9759 26.7851 96.9393 26.8716C96.9131 26.9345 96.8869 27 96.8607 27.0628C96.8318 27.131 96.8056 27.1965 96.7768 27.2646C96.7428 27.3458 96.7061 27.427 96.672 27.5056C96.6511 27.5554 96.6275 27.6026 96.6065 27.6523C96.562 27.7493 96.5175 27.8462 96.4703 27.9431C96.4546 27.9746 96.4389 28.0086 96.4231 28.0401C96.3707 28.1501 96.3157 28.2602 96.2581 28.3702C96.2502 28.3885 96.2397 28.4069 96.2319 28.4226C96.169 28.5431 96.1061 28.6636 96.0406 28.7841C96.038 28.792 96.0328 28.7972 96.0302 28.8051C95.6136 29.5727 95.1368 30.3168 94.6023 31.0294C94.5997 31.0346 94.5944 31.0399 94.5918 31.0451C94.508 31.1552 94.4241 31.2652 94.3403 31.3752C94.3298 31.3883 94.3193 31.4014 94.3062 31.4172C94.2276 31.5167 94.1464 31.6163 94.0652 31.7158C94.0443 31.742 94.0233 31.7656 94.0023 31.7892C93.929 31.8756 93.8556 31.9647 93.7823 32.0512C93.7482 32.0905 93.7141 32.1272 93.6801 32.1665C93.6172 32.2398 93.5517 32.3105 93.4888 32.3839C93.4338 32.4442 93.3814 32.5018 93.3264 32.5594C93.2792 32.6092 93.2321 32.6616 93.1849 32.7114C92.9753 32.9315 92.7605 33.1463 92.5378 33.3585C92.488 33.4057 92.4356 33.4528 92.3858 33.5C92.3282 33.555 92.2706 33.61 92.2103 33.6624C92.1369 33.7279 92.0636 33.7934 91.9902 33.8563C91.9536 33.8904 91.9169 33.9218 91.8776 33.9559C91.7911 34.0318 91.702 34.1052 91.613 34.1786C91.5894 34.1995 91.5658 34.2179 91.5422 34.2388C91.4427 34.32 91.3405 34.4012 91.2409 34.4825C91.2278 34.4929 91.2147 34.5034 91.2043 34.5113C91.0942 34.5977 90.9842 34.6816 90.8715 34.7654C90.8663 34.768 90.8637 34.7707 90.8584 34.7733C90.1432 35.3077 89.3991 35.7846 88.6289 36.2011C88.6236 36.2038 88.6184 36.2064 88.6132 36.209C88.4926 36.2745 88.3695 36.34 88.249 36.4002C88.2333 36.4081 88.2149 36.416 88.1992 36.4264C88.0892 36.4841 87.9765 36.5391 87.8665 36.5915C87.835 36.6072 87.8062 36.6203 87.7748 36.636C87.6778 36.6832 87.5783 36.7277 87.4813 36.7723C87.4342 36.7932 87.387 36.8142 87.3399 36.8352C87.2587 36.8718 87.1748 36.9085 87.0936 36.9426C87.0281 36.9714 86.9626 36.9976 86.8971 37.0264C86.8316 37.0526 86.7661 37.0814 86.7006 37.1076C86.6168 37.1417 86.5329 37.1731 86.4465 37.2072C86.3993 37.2255 86.3522 37.2439 86.3024 37.2622C86.2002 37.3015 86.098 37.3382 85.9959 37.3749C85.9644 37.3853 85.933 37.3958 85.9015 37.4089C85.7836 37.4508 85.6657 37.4901 85.5452 37.5294C85.5295 37.5347 85.5112 37.5399 85.4954 37.5452C85.3644 37.5871 85.2308 37.629 85.0998 37.6683L85.0867 37.6735C84.2484 37.9224 83.3838 38.1137 82.4983 38.2394C82.4956 38.2394 82.4904 38.2394 82.4878 38.2394C82.3489 38.2604 82.2101 38.2787 82.0686 38.2945C82.0529 38.2945 82.0398 38.2971 82.024 38.2997C81.8957 38.3154 81.7647 38.3285 81.6363 38.3416C81.6075 38.3442 81.5787 38.3468 81.5498 38.3495C81.4346 38.3599 81.3167 38.3704 81.1988 38.3783C81.1516 38.3809 81.1045 38.3835 81.0547 38.3861C80.9551 38.3914 80.8556 38.3992 80.756 38.4045C80.68 38.4071 80.6041 38.4097 80.5307 38.4123C80.4573 38.415 80.384 38.4176 80.308 38.4202C80.156 38.4228 80.0041 38.4254 79.8521 38.4254C79.7002 38.4254 79.5482 38.4254 79.3963 38.4202C79.3229 38.4202 79.2496 38.415 79.1762 38.4123C79.1002 38.4097 79.0242 38.4071 78.9483 38.4045C78.8487 38.3992 78.7491 38.394 78.6496 38.3861C78.6024 38.3835 78.5553 38.3809 78.5055 38.3783C78.3876 38.3704 78.2723 38.3599 78.157 38.3495C78.1282 38.3468 78.0994 38.3442 78.0706 38.3416C77.9396 38.3285 77.8112 38.3154 77.6828 38.2997C77.6671 38.2997 77.654 38.2971 77.6383 38.2945C77.4994 38.2787 77.358 38.2604 77.2191 38.2394C77.2139 38.2394 77.2113 38.2394 77.206 38.2394C76.3231 38.1111 75.4585 37.9224 74.6202 37.6735C74.6149 37.6735 74.6071 37.6709 74.6018 37.6683C74.4708 37.629 74.3398 37.5897 74.2088 37.5478C74.1905 37.5425 74.1721 37.5373 74.1538 37.5294C74.0359 37.4901 73.918 37.4508 73.8027 37.4115C73.7687 37.4011 73.7372 37.388 73.7032 37.3775C73.601 37.3408 73.5014 37.3041 73.3993 37.2674C73.3495 37.2491 73.2997 37.2308 73.2499 37.2098C73.1661 37.1784 73.0849 37.1469 73.001 37.1129C72.9329 37.0867 72.8674 37.0578 72.7993 37.0316C72.7364 37.0054 72.6709 36.9793 72.6081 36.9504C72.5242 36.9138 72.4404 36.8771 72.3539 36.8404C72.3094 36.8194 72.2622 36.8011 72.2177 36.7801C72.1181 36.7356 72.0186 36.6884 71.9164 36.6387C71.8876 36.6256 71.8588 36.6125 71.8299 36.5967C71.7173 36.5417 71.602 36.4841 71.4893 36.4264C71.4762 36.4186 71.4605 36.4107 71.4474 36.4055C71.3243 36.3426 71.1985 36.2771 71.0754 36.209C71.0728 36.209 71.0702 36.2064 71.0675 36.2038C70.2973 35.7846 69.5506 35.3077 68.8327 34.7707C68.7175 34.6842 68.6048 34.5977 68.4895 34.5087C68.4791 34.5008 68.4712 34.4929 68.4607 34.4877C68.3559 34.4065 68.2511 34.3227 68.1489 34.2362C68.128 34.2205 68.1096 34.2021 68.0913 34.1864C67.9996 34.1104 67.9053 34.0318 67.8162 33.9532C67.7848 33.9244 67.7507 33.8956 67.7193 33.8668C67.6407 33.7987 67.5621 33.7305 67.4861 33.6598C67.4363 33.6127 67.3866 33.5655 67.3342 33.521C67.2739 33.4659 67.2163 33.4109 67.156 33.3559C67.0591 33.2642 66.9621 33.1699 66.8678 33.0729C66.8547 33.0598 66.8442 33.0494 66.8311 33.0389C66.8311 33.0389 66.8259 33.0336 66.8233 33.031C66.7028 32.9105 66.5849 32.7874 66.467 32.6642C66.4617 32.659 66.4565 32.6511 66.4486 32.6459C65.5893 31.7342 64.8216 30.736 64.1614 29.6644L64.1509 29.6539Z" fill="white"/>
<path d="M79.832 38.4202C79.6486 38.4202 79.4678 38.4176 79.2844 38.4123L83.0467 28.0741H88.2236C89.1327 28.0741 90.1309 27.3746 90.4401 26.5231L94.5219 15.3151C95.19 13.4811 94.1394 11.9773 92.1849 11.9773H85.0037L78.9779 28.5352L75.5615 37.9224C67.4581 35.9967 61.4297 28.7108 61.4297 20.0152C61.4297 11.3197 67.1123 4.45814 74.862 2.28885L71.3382 11.9773L65.4775 28.0741H69.3785L74.3616 14.3955H77.2933L72.3102 28.0741H76.2087L80.8538 15.3125C81.5219 13.4785 80.4713 11.9747 78.5194 11.9747H75.2393L79.0041 1.62601C79.2792 1.61291 79.5543 1.60767 79.832 1.60767C89.9973 1.60767 98.237 9.84732 98.237 20.0126C98.237 30.1779 89.9973 38.4176 79.832 38.4176V38.4202ZM90.9693 14.385H88.0376L83.9322 25.6454H86.8639L90.9693 14.385Z" fill="#0057C2"/>
</svg>
